<svg width="400" height="468" viewBox="0 0 400 468" fill="none" xmlns="http://www.w3.org/2000/svg">
<g opacity="0.4">
<path d="M354 410C354 422.542 282.365 432.709 194 432.709C182.364 432.709 171.019 432.533 160.089 432.198C141.714 431.635 124.513 430.625 109.082 429.25C63.983 425.234 34 418.114 34 410C34 397.457 105.634 387.29 194 387.29C282.365 387.29 354 397.457 354 410Z" fill="black"/>
<path d="M160.089 432.198C141.714 431.635 124.513 430.625 109.082 429.25C101.816 440.307 94.2953 454.647 100 457.5C107.398 461.199 145.198 439.9 160.089 432.198Z" fill="black"/>
</g>
<path d="M317.855 192L312.855 206L323.355 250C331.503 234.91 351.819 205.421 352.28 200.267C352.857 193.824 351.63 180.725 339.471 169.146C329.744 159.882 285.796 147.856 265.038 143L293.691 178.037L317.855 192Z" fill="#32CAEF" stroke="#0E2648" stroke-width="8" stroke-linecap="round" stroke-linejoin="round"/>
<path d="M266.788 58.5651C267.534 56.079 266.893 53.3834 265.107 51.4998C263.321 49.6162 260.663 48.8328 258.141 49.4463C224.846 57.5453 146.005 94.7385 89.5916 179.558C89.5124 179.677 89.4367 179.799 89.3646 179.922C56.2563 236.737 57.121 289.512 62.2071 310.098C65.6268 328.3 75.954 355.1 96.0428 377.521C116.394 400.233 146.769 418.414 189.588 418.423C296.58 418.446 347.035 314.624 322.713 240.139C316.669 221.63 308.067 206.714 299.254 193.374C295.909 188.31 292.635 183.608 289.467 179.059C284.076 171.317 278.994 164.019 274.396 156.133C267.327 144.009 262.014 131.395 260.104 116.125C258.191 100.822 259.638 82.3734 266.788 58.5651Z" fill="url(#paint0_linear_391_14306)" stroke="#0E2648" stroke-width="14.4826" stroke-linejoin="round"/>
<mask id="mask0_391_14306" style="mask-type:alpha" maskUnits="userSpaceOnUse" x="67" y="55" width="256" height="356">
<path d="M190.196 410.519C109.181 410.502 76.2374 342.095 69.8927 307.893C65.2208 289.312 63.9472 238.3 96.228 182.905C151.541 99.7411 228.763 63.5294 260.459 55.8191C230.976 154.001 293.386 171.131 316.436 241.723C339.487 312.315 291.465 410.54 190.196 410.519Z" fill="url(#paint1_linear_391_14306)"/>
</mask>
<g mask="url(#mask0_391_14306)">
<path d="M170.578 170.355C160.536 168.241 145.252 176.081 138.866 180.265C135.695 183.436 135.783 184.669 136.223 184.89C140.848 180.926 155.382 176.962 160.007 176.301C164.632 175.64 183.13 172.998 170.578 170.355Z" fill="#0E2648"/>
<path d="M242.315 165.358C250.065 163.228 261.859 171.126 266.788 175.341C269.235 178.536 269.167 179.778 268.828 180C265.259 176.007 254.042 172.013 250.473 171.348C246.904 170.682 232.628 168.02 242.315 165.358Z" fill="#0E2648"/>
<path d="M152.5 245.5C159.167 250.167 172.8 256.2 174 243C175.5 226.5 152 206 142 223C132 240 138.5 289.5 176.5 264C214.5 238.5 186.5 218 171.5 207" stroke="#0E2648" stroke-width="8" stroke-linecap="round"/>
<path d="M242.986 221.599C245.304 227.058 251.398 236.038 257.235 228.28C264.532 218.583 257.927 196.817 245.185 203.569C232.444 210.321 217.35 243.627 250.672 242.311C283.995 240.996 274.61 217.506 269.589 204.91" stroke="#0E2648" stroke-width="8" stroke-linecap="round"/>
<path d="M173.199 340.308C190.762 320.703 236.178 284.248 277.338 295.271" stroke="#0E2648" stroke-width="8" stroke-linecap="round"/>
<path d="M156.046 128.308C166.836 116.792 189.232 105.376 199.081 101.108C221.633 93.0072 182.833 124.297 177.919 128.964C163.721 142.447 142.558 142.704 156.046 128.308Z" fill="#3DBBDA"/>
<ellipse cx="157.204" cy="157.703" rx="13.8243" ry="7.24131" transform="rotate(-31.4157 157.204 157.703)" fill="#3DBBDA"/>
<path d="M155.383 122.272C167.071 111.667 190.318 102.103 200.481 98.647C223.615 92.3996 182.408 120.443 177.131 124.697C161.888 136.986 140.774 135.527 155.383 122.272Z" fill="#F3F3F3"/>
<ellipse cx="155.264" cy="150.242" rx="13.8243" ry="7.24131" transform="rotate(-21.4892 155.264 150.242)" fill="#F3F3F3"/>
</g>
<path d="M190.628 401.077C178.926 405.915 176 417.204 176 422.244C178.438 473.65 243.044 467.602 266.814 456.112C285.83 446.919 285.301 392.207 282.66 366C262.669 370.354 238.574 391.199 229.025 401.077C221.102 399.061 202.33 396.239 190.628 401.077Z" fill="#0E2648"/>
<path d="M274 363C264.4 367 262 376.333 262 380.5C264 423 317 418 336.5 408.5C352.1 400.9 351.667 355.667 349.5 334C333.1 337.6 313.333 354.833 305.5 363C299 361.333 283.6 359 274 363Z" fill="#0E2648"/>
<path d="M118.5 450L144 376C134.8 338.4 105.167 345 91.5 353C95.8333 381.833 101.6 440.4 90 444C78.4 447.6 70.1667 455.167 67.5 458.5C73.1 472.5 103.833 458.667 118.5 450Z" fill="#3CCBEE"/>
<path d="M99 438C101.5 435.667 107.4 431.2 111 432" stroke="#0E2648" stroke-width="7" stroke-linecap="round"/>
<path d="M143.5 375.5C137.167 396.5 123.6 440.4 120 448C115.5 457.5 83.4999 468.5 68.4999 461C53.4999 453.5 95.9999 441.5 98.9999 438C101.4 435.2 94 379.5 90 352" stroke="#0E2648" stroke-width="8" stroke-linecap="round"/>
<defs>
<linearGradient id="paint0_linear_391_14306" x1="218.128" y1="52.1103" x2="180.522" y2="410.986" gradientUnits="userSpaceOnUse">
<stop stop-color="#8BD7EA"/>
<stop offset="1" stop-color="#32CAEF"/>
</linearGradient>
<linearGradient id="paint1_linear_391_14306" x1="218.735" y1="51.4469" x2="181.129" y2="410.323" gradientUnits="userSpaceOnUse">
<stop stop-color="#96D9EA"/>
<stop offset="1" stop-color="#13C6F1"/>
</linearGradient>
</defs>
</svg>
