<svg width="434" height="58" viewBox="0 0 434 58" fill="none" xmlns="http://www.w3.org/2000/svg">
<path d="M29.6772 35.3118C29.6772 26.5083 21.3628 19.4165 17.2055 16.9711C14.8579 9.92819 29.9218 11.1022 37.7472 12.5695C39.459 12.814 43.4695 15.7972 45.8171 25.7746C48.7517 38.2464 29.6772 46.3163 29.6772 35.3118Z" fill="#66D1EC" stroke="#0E2648" stroke-width="7.653" stroke-linecap="round" stroke-linejoin="round"/>
<path d="M12.9574 33.8426C12.9574 27.6165 7.1011 22.6011 4.17295 20.8716C2.51941 15.8908 13.1296 16.721 18.6414 17.7588C19.8472 17.9316 22.672 20.0415 24.3255 27.0977C26.3924 35.918 12.9574 41.6252 12.9574 33.8426Z" fill="#66D1EC" stroke="#0E2648" stroke-width="7.653" stroke-linecap="round" stroke-linejoin="round"/>
<path d="M47.1204 39.6063C50.6759 29.2653 45.6772 18.2317 42.7335 14.0075C43.3577 4.97144 57.129 11.2483 63.9367 15.5162C65.4567 16.3599 68.0445 21.1682 66.2351 33.6512C63.9733 49.2551 42.6762 52.5325 47.1204 39.6063Z" fill="#66D1EC" stroke="#0E2648" stroke-width="7.653" stroke-linecap="round" stroke-linejoin="round"/>
<path d="M69.8775 33.8388C70.5 24.4806 62.7053 16.3903 58.7302 13.5148C56.8857 5.87251 71.8334 8.12028 79.5378 10.1995C81.2286 10.5729 85.0193 14.0103 86.6562 24.772C88.7024 38.2242 69.0994 45.5364 69.8775 33.8388Z" fill="#66D1EC" stroke="#0E2648" stroke-width="7.653" stroke-linecap="round" stroke-linejoin="round"/>
<path d="M406.024 32.6306C404.582 23.9228 411.645 15.5463 415.356 12.4465C416.524 5.0958 401.817 8.72441 394.317 11.4576C392.664 11.9798 389.185 15.5875 388.498 25.8408C387.638 38.6575 407.827 43.5153 406.024 32.6306Z" fill="#66D1EC" stroke="#0E2648" stroke-width="7.6728" stroke-linecap="round" stroke-linejoin="round"/>
<path d="M422.321 28.4386C421.301 22.2803 426.272 16.3602 428.885 14.1699C429.705 8.97241 419.346 11.5316 414.064 13.4608C412.9 13.8293 410.452 16.3789 409.972 23.6292C409.372 32.692 423.596 36.1365 422.321 28.4386Z" fill="#66D1EC" stroke="#0E2648" stroke-width="7.6728" stroke-linecap="round" stroke-linejoin="round"/>
<path d="M389.475 39.7357C384.264 30.0897 387.401 18.3574 389.621 13.697C387.523 4.86151 374.93 13.3257 368.896 18.6623C367.53 19.7458 365.758 24.9256 369.593 36.9764C374.386 52.04 395.988 51.7933 389.475 39.7357Z" fill="#66D1EC" stroke="#0E2648" stroke-width="7.6728" stroke-linecap="round" stroke-linejoin="round"/>
<path d="M366.02 37.7582C363.872 28.6038 370.256 19.3248 373.717 15.8295C374.29 7.96825 359.873 12.6399 352.593 15.9584C350.982 16.6048 347.795 20.6257 347.939 31.5384C348.118 45.1793 368.706 49.2011 366.02 37.7582Z" fill="#66D1EC" stroke="#0E2648" stroke-width="7.6728" stroke-linecap="round" stroke-linejoin="round"/>
</svg>
