<svg width="754" height="753" viewBox="0 0 754 753" fill="none" xmlns="http://www.w3.org/2000/svg">
<mask id="mask0_235_14052" style="mask-type:alpha" maskUnits="userSpaceOnUse" x="0" y="0" width="754" height="753">
<rect x="0.50293" y="0.10498" width="752.847" height="752.847" fill="#D9D9D9"/>
</mask>
<g mask="url(#mask0_235_14052)">
<path d="M29.8983 123.772C84.2657 26.208 207.888 -8.10103 304.76 47.4889L530.399 176.971C559.44 193.636 585.684 214.76 608.17 239.569L627.748 261.168C734.279 378.703 726.687 560.002 610.701 668.218C493.522 777.549 309.9 771.186 200.569 654.007L114.708 561.981C69.3724 513.391 39.48 452.438 28.8179 386.844L7.14407 253.504C-0.101019 208.931 7.91681 163.218 29.8983 123.772Z" fill="#38ABB4"/>
<path d="M611.897 134.299L497.747 313.689C492.287 324.583 485.483 349.795 501.948 363.49C518.412 377.184 537.752 369.4 545.365 363.796L649.95 147.164L611.897 134.299Z" fill="#32CAEF"/>
<path d="M488.104 322.289L620.604 118.305" stroke="#0E2648" stroke-width="12.3614" stroke-linecap="round"/>
<path d="M545.385 353.942L652.569 149.853" stroke="#0E2648" stroke-width="12.3614" stroke-linecap="round"/>
<mask id="mask1_235_14052" style="mask-type:alpha" maskUnits="userSpaceOnUse" x="-190" y="-154" width="882" height="868">
<rect x="81.5957" y="-269.029" width="1004.57" height="558.757" rx="279.379" transform="rotate(43.7795 81.5957 -269.029)" fill="#D9D9D9"/>
</mask>
<g mask="url(#mask1_235_14052)">
<rect x="81.5957" y="-269.029" width="1004.57" height="558.757" rx="279.379" transform="rotate(43.7795 81.5957 -269.029)" fill="white"/>
<path d="M556.955 223.777L572.412 198.319L607.873 231.96L572.412 355.616L489.672 263.784L556.955 223.777Z" fill="#32CAEF"/>
<path d="M571.504 194.682C567.867 198.015 559.684 208.684 556.047 224.686C541.196 228.324 507.493 241.599 491.49 265.603L571.504 366.528C579.99 329.856 599.507 251.237 609.691 230.143" stroke="#0E2648" stroke-width="12.3656" stroke-linejoin="round"/>
<path d="M475.977 247.56C476.185 247.717 476.388 247.879 476.586 248.048C567.628 325.573 597.948 416.642 601.627 455.026C606.73 488.317 605.161 540.522 584.206 591.095C562.977 642.327 521.817 691.826 448.358 717.644C264.803 782.16 115.672 634.437 112.514 491.983C111.73 456.586 117.501 425.81 124.581 397.611C127.268 386.907 130.053 376.867 132.746 367.153C137.33 350.622 141.652 335.037 144.788 318.737C149.611 293.675 151.126 268.832 145.199 241.482C139.26 214.073 125.659 183.293 99.0451 146.753C96.266 142.937 95.7418 137.926 97.6712 133.618C99.6006 129.31 103.688 126.364 108.386 125.897C170.39 119.728 328.072 136.03 475.977 247.56Z" fill="url(#paint0_linear_235_14052)" stroke="#0E2648" stroke-width="26.3362" stroke-linejoin="round"/>
<mask id="mask2_235_14052" style="mask-type:alpha" maskUnits="userSpaceOnUse" x="108" y="137" width="482" height="583">
<path d="M442.551 704.449C581.541 655.598 596.838 518.379 587.113 455.876C583.931 421.179 555.375 332.89 466.608 257.302C321.591 147.949 167.278 132.356 108.249 138.228C218.001 288.913 121.247 355.914 124.239 490.92C127.231 625.926 268.815 765.513 442.551 704.449Z" fill="url(#paint1_linear_235_14052)"/>
</mask>
<g mask="url(#mask2_235_14052)">
<path d="M472 428C452.167 434.667 408.721 445.306 392 438C332.5 412 338.443 505.5 281.5 505.5C223.5 505.5 289.333 537 299 543C322.139 541.722 368.791 535.639 406.962 521.141C418.686 514.793 429.53 509.494 438.5 505.5C429.368 511.557 418.556 516.737 406.962 521.141C359.002 547.106 296.321 590.607 287 634C318.333 648.167 382.1 679.9 386.5 693.5C390.9 707.1 388.333 725.5 386.5 733C310.5 704.667 148.7 627 109.5 543C115.5 470.5 132.8 315.7 154 276.5C160.167 300.667 180 348.2 210 345C240 341.8 313.5 336.333 346.5 334C392.833 331.167 482.8 346 472 428Z" fill="#3DBBDA"/>
<path d="M304.188 544.591C331.321 546.088 403.885 535.815 477.085 482.748" stroke="#0E2648" stroke-width="12.7293" stroke-linecap="round"/>
<path d="M331.076 199.676C305.623 186.42 260.318 180.331 240.848 178.943C197.273 178.635 282.699 208.937 293.943 213.983C326.428 228.56 362.893 216.247 331.076 199.676Z" fill="#3DBBDA"/>
<ellipse cx="25.1391" cy="13.1681" rx="25.1391" ry="13.1681" transform="matrix(-0.97792 -0.208978 -0.208978 0.97792 374.14 243.184)" fill="#3DBBDA"/>
<path d="M328.574 188.92C302.131 177.769 256.482 175.37 236.963 175.564C193.506 178.786 281.106 202.069 292.722 206.187C326.281 218.085 361.629 202.859 328.574 188.92Z" fill="#F3F3F3"/>
<ellipse cx="25.1391" cy="13.1681" rx="25.1391" ry="13.1681" transform="matrix(-0.999305 -0.0372711 -0.0372711 0.999305 371.249 224.615)" fill="#F3F3F3"/>
</g>
<path d="M560.777 232.685L125.705 367.717L129.781 398.846L154.446 413.532C168.431 454.991 203.004 512.4 279.985 494.093C356.965 475.787 356.541 398.841 356.436 387.704C356.33 376.566 382.505 367.325 389.041 377.584C402.041 401.476 428.139 448.111 501.507 425.34C560.156 407.137 584.566 345.326 567.664 290.868L578.661 265.114L560.777 232.685Z" fill="#0E2648"/>
<path d="M293.135 342.329L268.894 349.853L244.762 476.51L272.914 467.773L293.135 342.329Z" fill="white"/>
<path d="M516.784 272.916L492.542 280.44L468.411 407.096L496.562 398.359L516.784 272.916Z" fill="white"/>
</g>
<path d="M175.986 676.577C169.44 670.758 162.348 618.992 159.62 593.836C178.714 580.198 231.362 552.77 243 569.5C254.638 586.23 262.682 637.678 264.5 659.5L317.827 676.577H346.923C351.287 679.486 359.652 684.457 363.289 686.578C378.564 688.76 378.746 705.066 376.927 712.946L352.378 706.581L273.275 718.401C261.455 716.886 232.359 713.128 210.537 710.218C183.26 706.581 184.169 683.851 175.986 676.577Z" fill="#51CEED"/>
<path d="M245.997 574.742C253.574 592.321 267.819 634.388 264.182 662.029C280.245 664.453 316.372 671.121 332.374 678.395C344.195 676.88 368.016 675.849 368.744 683.85C373.896 685.366 384.928 688.578 387.838 696.58C390.747 704.581 391.778 710.521 390.566 712.037" stroke="#0E2648" stroke-width="10.9108" stroke-linecap="round" stroke-linejoin="round"/>
<path d="M159.62 592.927C162.045 621.416 171.076 682.214 187.806 697.489C208.719 716.583 273.275 722.038 303.279 714.764C327.283 708.945 343.589 706.884 348.741 706.581" stroke="#0E2648" stroke-width="10.9108" stroke-linecap="round" stroke-linejoin="round"/>
<path d="M686.068 186.671C673.46 195.4 641.212 199.198 626.665 200.006C621.815 192.732 616.966 122.419 621.815 122.419C633.938 121.207 670.308 106.658 683.643 95.7475C694.312 87.0188 697.787 89.6859 698.191 92.1106C699.403 94.5352 701.101 99.8694 698.191 101.809C687.523 107.628 679.198 122.014 676.369 128.48C679.602 124.843 689.462 116.841 703.04 113.932C720.013 110.295 728.499 119.993 727.287 123.63C726.074 127.267 724.862 127.267 711.527 128.48C700.858 129.449 686.068 141.815 680.006 147.877C682.027 146.26 688.493 142.301 698.191 139.391C710.314 135.754 720.013 140.603 722.437 140.603C724.862 140.603 727.287 146.665 724.862 149.09C722.922 151.029 707.081 152.322 699.403 152.726C696.494 155.636 686.068 162.021 681.219 164.849V170.911C698.191 161.212 721.225 155.151 720.013 164.849C718.8 174.548 701.828 175.76 686.068 186.671Z" fill="#4CCDED" stroke="#0E2648" stroke-width="9.69851"/>
<path d="M627.759 216.751C627.836 217.386 628.243 217.934 628.83 218.19C640.968 223.481 675.526 230.659 718.525 218.27C719.225 218.068 719.736 217.465 719.819 216.741L738.777 51.5312C738.876 50.6728 738.352 49.8649 737.529 49.604C719.179 43.7934 668.112 35.767 609.278 49.5675C608.382 49.7776 607.788 50.6275 607.898 51.5409L627.759 216.751Z" stroke="#C0C0C0" stroke-width="3.61115" stroke-linejoin="round"/>
<mask id="mask3_235_14052" style="mask-type:alpha" maskUnits="userSpaceOnUse" x="609" y="43" width="128" height="181">
<path d="M629.552 216.535L609.69 51.3254C668.191 37.603 718.928 45.6077 736.983 51.3254L718.025 216.535C675.413 228.813 641.288 221.651 629.552 216.535Z" fill="#D9D9D9"/>
</mask>
<g mask="url(#mask3_235_14052)">
<g filter="url(#filter0_b_235_14052)">
<path d="M667.47 75.7001C648.692 80.7557 622.933 73.5936 612.4 69.3806C609.993 100.677 604.455 165.798 601.567 175.91C597.955 188.549 596.15 204.799 597.955 221.049C599.761 237.299 641.289 240.007 674.692 242.716C701.415 244.882 723.142 230.98 730.665 223.757L736.082 79.3113C733.975 81.7187 727.415 85.9919 718.026 83.8252C706.29 81.1168 690.942 69.3806 667.47 75.7001Z" fill="#83D5EA" fill-opacity="0.49"/>
</g>
</g>
<path d="M637.849 103.265L615.146 121.165L618.93 167.404C637.092 161.438 643.314 132.103 644.155 118.181C665.344 121.761 667.278 109.729 665.596 103.265C654.245 103.265 641.633 100.282 637.849 103.265Z" fill="#6AD2EB" stroke="#0E2648" stroke-width="7.27388" stroke-linejoin="round"/>
<path d="M613.328 127.398L622.421 120.124L623.33 161.04C621.148 163.222 616.965 163.768 615.147 163.768L608.782 130.126L613.328 127.398Z" fill="#6AD2EB"/>
</g>
<defs>
<filter id="filter0_b_235_14052" x="589.122" y="61.2555" width="155.085" height="189.812" filterUnits="userSpaceOnUse" color-interpolation-filters="sRGB">
<feFlood flood-opacity="0" result="BackgroundImageFix"/>
<feGaussianBlur in="BackgroundImageFix" stdDeviation="4.06254"/>
<feComposite in2="SourceAlpha" operator="in" result="effect1_backgroundBlur_235_14052"/>
<feBlend mode="normal" in="SourceGraphic" in2="effect1_backgroundBlur_235_14052" result="shape"/>
</filter>
<linearGradient id="paint0_linear_235_14052" x1="178.641" y1="106.355" x2="459.43" y2="699.422" gradientUnits="userSpaceOnUse">
<stop stop-color="#8BD7EA"/>
<stop offset="1" stop-color="#32CAEF"/>
</linearGradient>
<linearGradient id="paint1_linear_235_14052" x1="177.201" y1="105.583" x2="457.99" y2="698.65" gradientUnits="userSpaceOnUse">
<stop stop-color="#96D9EA"/>
<stop offset="1" stop-color="#13C6F1"/>
</linearGradient>
</defs>
</svg>
