<svg width="648" height="1468" viewBox="0 0 648 1468" fill="none" xmlns="http://www.w3.org/2000/svg">
<g clip-path="url(#clip0_490_26479)">
<path d="M75.4151 1458.55C89.1168 1450.02 95.472 1417.94 96.9369 1402.96C91.0225 1379.91 68.6427 1349.73 65.5236 1345.86C55.8991 1375.51 28.1741 1414.07 11.1215 1428.23C7.30618 1429.09 -1.58207 1439.17 -5.5493 1444.1C4.96005 1468.85 43.8179 1518.08 58.9948 1532.69C83.8229 1517.93 80.2867 1477.12 75.4151 1458.55Z" fill="#0E2648"/>
<path d="M389.524 1181.74L226.153 1247.76C217.225 1252.48 200.496 1266.21 205.006 1283.37C209.516 1300.54 226.309 1304.6 234.141 1304.49L408.994 1208.74L389.524 1181.74Z" fill="#32CAEF"/>
<path d="M215.508 1248.92L387.134 1182.08" stroke="#0E2648" stroke-width="10.244" stroke-linecap="round"/>
<path d="M238.898 1297.85L409.464 1211.82" stroke="#0E2648" stroke-width="10.244" stroke-linecap="round"/>
<path d="M421.004 1221.91C400.823 1224.69 388.372 1187.71 384.67 1168.87C382.613 1158.4 388.542 1151.59 388.46 1136.54C388.359 1117.72 400.217 1124.69 400.196 1128.28C400.175 1131.88 411.887 1148.76 415.466 1152.37C419.046 1155.98 429.025 1149.96 439.701 1146.45C446.836 1143.27 466.189 1133.4 474.819 1130.69C477.854 1130.85 483.155 1132.43 480.075 1137.49C476.995 1142.55 459.222 1152.75 450.875 1155.39C452.216 1157.93 454.096 1159.99 454.868 1160.69L498.142 1150.12C499.825 1152.1 503.017 1156.83 502.321 1159.87C501.626 1162.91 472.933 1174.53 459.212 1178.48L496.62 1177.42C497.668 1179.25 499.21 1183.6 496.992 1186.3C494.773 1188.99 469.386 1189.45 457.017 1191.58C456.669 1193.1 458.128 1194.89 458.9 1195.6C460.406 1198.82 476.18 1198.86 488.121 1197.44C490.232 1198.72 493.898 1201.95 491.68 1204.65C488.906 1208.01 471.088 1212.37 460.285 1212.31C449.482 1212.26 446.231 1218.44 421.004 1221.91Z" fill="#54CFED" stroke="#0E2648" stroke-width="9.72578" stroke-linecap="round" stroke-linejoin="round"/>
<path d="M389.767 1172.93C393.29 1189.55 375.351 1191.46 368.336 1194.98C367.079 1201.08 373.677 1215.63 377.643 1222.07C383.921 1218.6 398.82 1210.88 405.19 1208.89C399.313 1192.45 387.926 1164.26 389.767 1172.93Z" fill="#54CFED"/>
<path d="M175.243 839.209C176.085 835.389 178.908 832.312 182.642 831.144C186.375 829.976 190.448 830.896 193.317 833.555C231.191 868.655 307.651 975.48 319.633 1128.52C319.65 1128.74 319.661 1128.95 319.665 1129.17C321.533 1228.25 281.654 1297.07 259.849 1320.43C241.986 1341.87 208.721 1369.56 165.824 1384.33C122.368 1399.28 69.0444 1400.91 12.6844 1369.49C-128.145 1290.98 -118.336 1117.3 -31.648 1037.12C-10.1071 1017.2 12.1643 1003.89 33.5546 992.798C41.6746 988.588 49.4354 984.804 56.9437 981.142C69.7215 974.911 81.7678 969.036 93.6076 962.033C111.812 951.266 128.064 938.565 141.786 919.87C155.538 901.134 167.175 875.791 175.243 839.209Z" fill="url(#paint0_linear_490_26479)" stroke="#0E2648" stroke-width="21.825" stroke-linejoin="round"/>
<mask id="mask0_490_26479" style="mask-type:alpha" maskUnits="userSpaceOnUse" x="-85" y="840" width="394" height="543">
<path d="M17.6855 1358.64C124.322 1418.09 217.895 1352.24 251.351 1311.88C271.14 1290.86 310.263 1224.66 308.442 1128.06C296.693 978.001 221.643 873.656 185.587 840.241C152.318 991.101 57.6052 967.833 -24.5509 1043.82C-106.707 1119.8 -115.611 1284.33 17.6855 1358.64Z" fill="url(#paint1_linear_490_26479)"/>
</mask>
<g mask="url(#mask0_490_26479)">
<path d="M-19.5905 1294.58C114.634 1403.08 278.037 1287.04 308.931 1185.32C308.931 1250.37 292.053 1401.73 224.54 1486.72C157.027 1571.71 -24.6136 1480.44 -106.995 1424.18C-149.944 1327.98 -192.592 1154.73 -19.5905 1294.58Z" fill="#3DBBDA"/>
<path d="M269.794 1012.29C264.047 989.214 242.951 957.749 233.122 944.902C209.388 917.686 237.483 987.348 240.525 997.098C249.314 1025.26 276.978 1041.14 269.794 1012.29Z" fill="#3DBBDA"/>
<ellipse cx="20.8329" cy="10.9125" rx="20.8329" ry="10.9125" transform="matrix(-0.491407 -0.87093 -0.87093 0.491407 266.434 1062.91)" fill="#3DBBDA"/>
<path d="M275.098 1004.83C267.5 982.296 243.925 952.644 233.087 940.635C207.226 915.431 240.873 982.588 244.695 992.06C255.735 1019.42 284.595 1033 275.098 1004.83Z" fill="#F3F3F3"/>
<ellipse cx="20.8329" cy="10.9125" rx="20.8329" ry="10.9125" transform="matrix(-0.634186 -0.773181 -0.773181 0.634186 276.372 1050.92)" fill="#F3F3F3"/>
<path d="M172.221 1026.51C186.392 1031.02 214.639 1041.48 214.254 1047.25C213.791 1054.18 174.693 1027.4 159.671 1028.94L157.978 1029.26C158.501 1029.11 159.066 1029 159.671 1028.94L172.221 1026.51Z" fill="#0E2648"/>
<path d="M313.105 1138.8C306.513 1126.4 292.135 1102.17 287.358 1104.4C281.619 1107.08 311.868 1136.67 313.536 1151.84L313.594 1153.6C313.624 1153.04 313.603 1152.46 313.536 1151.84L313.105 1138.8Z" fill="#0E2648"/>
</g>
<circle cx="136.064" cy="1104.38" r="37.6744" transform="rotate(48.5044 136.064 1104.38)" fill="#0E2648"/>
<ellipse cx="152.343" cy="1102.97" rx="16.4198" ry="17.6829" transform="rotate(48.5044 152.343 1102.97)" fill="white"/>
<ellipse cx="115.031" cy="1105.92" rx="4.44382" ry="4.78565" transform="rotate(48.5044 115.031 1105.92)" fill="white"/>
<circle cx="241.199" cy="1195.95" r="33.1535" transform="rotate(48.5044 241.199 1195.95)" fill="#0E2648"/>
<ellipse cx="256.579" cy="1194.67" rx="13.6025" ry="14.6488" transform="rotate(48.5044 256.579 1194.67)" fill="white"/>
<ellipse cx="220.778" cy="1198.1" rx="5.64492" ry="6.07915" transform="rotate(48.5044 220.778 1198.1)" fill="white"/>
<path d="M142.833 1229.03C151.372 1229.53 167.848 1233.55 165.437 1245.6C163.026 1257.66 149.363 1259.16 142.833 1258.41C143.335 1265.69 141.024 1279.66 127.763 1277.25C114.501 1274.84 113.698 1258.66 114.953 1250.88" stroke="#0E2648" stroke-width="9.04186" stroke-linecap="round"/>
<rect x="-6.02832" y="-622.381" width="67.8139" height="2712.56" fill="#38ABB4"/>
<path d="M38.5605 999.176C50.6211 999.176 60.3367 987.786 63.6868 982.091C73.3353 978.874 71.727 999.511 69.7168 1010.23C69.3819 1012.58 65.2949 1018.07 51.6262 1021.29C34.5403 1025.31 23.4847 999.176 38.5605 999.176Z" fill="#66D1EC" stroke="#0E2648" stroke-width="12.0606" stroke-linecap="round" stroke-linejoin="round"/>
<path d="M40.5745 976.271C49.104 976.271 55.975 968.248 58.3443 964.237C65.168 961.972 64.0306 976.507 62.6089 984.058C62.372 985.71 59.4816 989.58 49.8148 991.845C37.7313 994.677 29.9125 976.271 40.5745 976.271Z" fill="#66D1EC" stroke="#0E2648" stroke-width="12.0606" stroke-linecap="round" stroke-linejoin="round"/>
<path d="M32.6776 1023.07C46.8444 1027.94 61.9601 1021.1 67.7471 1017.06C80.1263 1017.92 71.5272 1036.79 65.6802 1046.11C64.5244 1048.19 57.9372 1051.74 40.8358 1049.26C19.459 1046.16 14.969 1016.99 32.6776 1023.07Z" fill="#66D1EC" stroke="#0E2648" stroke-width="12.0606" stroke-linecap="round" stroke-linejoin="round"/>
<path d="M40.5786 1054.25C53.3989 1055.1 64.4825 1044.42 68.4217 1038.98C78.8915 1036.45 75.8121 1056.93 72.9637 1067.48C72.4521 1069.8 67.7429 1074.99 52.9997 1077.24C34.5707 1080.04 24.5531 1053.18 40.5786 1054.25Z" fill="#66D1EC" stroke="#0E2648" stroke-width="12.0606" stroke-linecap="round" stroke-linejoin="round"/>
</g>
<defs>
<linearGradient id="paint0_linear_490_26479" x1="244.022" y1="866.433" x2="30.0742" y2="1366.36" gradientUnits="userSpaceOnUse">
<stop stop-color="#8BD7EA"/>
<stop offset="1" stop-color="#32CAEF"/>
</linearGradient>
<linearGradient id="paint1_linear_490_26479" x1="243.71" y1="865.115" x2="29.7617" y2="1365.04" gradientUnits="userSpaceOnUse">
<stop stop-color="#96D9EA"/>
<stop offset="1" stop-color="#13C6F1"/>
</linearGradient>
<clipPath id="clip0_490_26479">
<rect width="648" height="1467.8" fill="white"/>
</clipPath>
</defs>
</svg>
