<svg width="1920" height="924" viewBox="0 0 1920 924" fill="none" xmlns="http://www.w3.org/2000/svg">
<g clip-path="url(#clip0_787_2)">
<rect width="1920" height="924" fill="url(#paint0_linear_787_2)"/>
<path opacity="0.3" d="M430 885.5C430 1069.69 280.687 1219 96.5 1219C-87.687 1219 -237 1069.69 -237 885.5C-237 701.313 -87.687 552 96.5 552C280.687 552 430 701.313 430 885.5ZM-136.76 885.5C-136.76 1014.33 -32.3258 1118.76 96.5 1118.76C225.326 1118.76 329.76 1014.33 329.76 885.5C329.76 756.674 225.326 652.24 96.5 652.24C-32.3258 652.24 -136.76 756.674 -136.76 885.5Z" fill="white"/>
<path opacity="0.3" d="M2053 929C2053 1000.24 1995.24 1058 1924 1058C1852.76 1058 1795 1000.24 1795 929C1795 857.755 1852.76 800 1924 800C1995.24 800 2053 857.755 2053 929ZM1817.88 929C1817.88 987.609 1865.39 1035.12 1924 1035.12C1982.61 1035.12 2030.12 987.609 2030.12 929C2030.12 870.391 1982.61 822.879 1924 822.879C1865.39 822.879 1817.88 870.391 1817.88 929Z" fill="white"/>
<path opacity="0.3" d="M830 233C830 304.245 772.245 362 701 362C629.755 362 572 304.245 572 233C572 161.755 629.755 104 701 104C772.245 104 830 161.755 830 233ZM594.879 233C594.879 291.609 642.391 339.121 701 339.121C759.609 339.121 807.121 291.609 807.121 233C807.121 174.391 759.609 126.879 701 126.879C642.391 126.879 594.879 174.391 594.879 233Z" fill="white"/>
<path opacity="0.3" d="M2159 924C2159 1056 2052 1163 1920 1163C1788 1163 1681 1056 1681 924C1681 792.004 1788 685 1920 685C2052 685 2159 792.004 2159 924ZM1747.51 924C1747.51 1019.26 1824.74 1096.49 1920 1096.49C2015.26 1096.49 2092.49 1019.26 2092.49 924C2092.49 828.736 2015.26 751.509 1920 751.509C1824.74 751.509 1747.51 828.736 1747.51 924Z" fill="white"/>
<circle opacity="0.3" cx="1810.21" cy="262.558" r="27.9006" transform="rotate(-39.1211 1810.21 262.558)" fill="white"/>
<circle opacity="0.3" cx="1754.22" cy="193.718" r="27.9006" transform="rotate(-39.1211 1754.22 193.718)" fill="white"/>
<circle opacity="0.3" cx="1698.24" cy="124.877" r="27.9006" transform="rotate(-39.1211 1698.24 124.877)" fill="white"/>
<circle opacity="0.3" cx="1642.25" cy="56.0375" r="27.9006" transform="rotate(-39.1211 1642.25 56.0375)" fill="white"/>
<circle opacity="0.3" cx="1874.08" cy="210.612" r="27.9006" transform="rotate(-39.1211 1874.08 210.612)" fill="white"/>
<circle opacity="0.3" cx="1818.1" cy="141.771" r="27.9006" transform="rotate(-39.1211 1818.1 141.771)" fill="white"/>
<circle opacity="0.3" cx="1762.11" cy="72.9311" r="27.9006" transform="rotate(-39.1211 1762.11 72.9311)" fill="white"/>
<circle opacity="0.3" cx="1706.12" cy="4.09028" r="27.9006" transform="rotate(-39.1211 1706.12 4.09028)" fill="white"/>
<circle opacity="0.3" cx="1937.96" cy="158.664" r="27.9006" transform="rotate(-39.1211 1937.96 158.664)" fill="white"/>
<circle opacity="0.3" cx="1881.97" cy="89.8247" r="27.9006" transform="rotate(-39.1211 1881.97 89.8247)" fill="white"/>
<circle opacity="0.3" cx="1825.98" cy="20.9838" r="27.9006" transform="rotate(-39.1211 1825.98 20.9838)" fill="white"/>
<circle opacity="0.3" cx="1945.84" cy="37.8774" r="27.9006" transform="rotate(-39.1211 1945.84 37.8774)" fill="white"/>
<circle opacity="0.3" cx="1889.85" cy="-30.9625" r="27.9006" transform="rotate(-39.1211 1889.85 -30.9625)" fill="white"/>
<circle opacity="0.3" cx="-6.11052" cy="15.2368" r="11.8812" transform="rotate(41.6573 -6.11052 15.2368)" fill="white"/>
<circle opacity="0.3" cx="19.0051" cy="-12.9946" r="11.8812" transform="rotate(41.6573 19.0051 -12.9946)" fill="white"/>
<circle opacity="0.3" cx="-5.03202" cy="66.771" r="11.8812" transform="rotate(41.6573 -5.03202 66.771)" fill="white"/>
<circle opacity="0.3" cx="20.0836" cy="38.5396" r="11.8812" transform="rotate(41.6573 20.0836 38.5396)" fill="white"/>
<circle opacity="0.3" cx="45.1989" cy="10.3081" r="11.8812" transform="rotate(41.6573 45.1989 10.3081)" fill="white"/>
<circle opacity="0.3" cx="21.1621" cy="90.0738" r="11.8812" transform="rotate(41.6573 21.1621 90.0738)" fill="white"/>
<circle opacity="0.3" cx="46.2774" cy="61.8423" r="11.8812" transform="rotate(41.6573 46.2774 61.8423)" fill="white"/>
<circle opacity="0.3" cx="71.393" cy="33.6109" r="11.8812" transform="rotate(41.6573 71.393 33.6109)" fill="white"/>
<circle opacity="0.3" cx="96.5083" cy="5.37943" r="11.8812" transform="rotate(41.6573 96.5083 5.37943)" fill="white"/>
<circle opacity="0.3" cx="47.3559" cy="113.376" r="11.8812" transform="rotate(41.6573 47.3559 113.376)" fill="white"/>
<circle opacity="0.3" cx="72.4715" cy="85.1451" r="11.8812" transform="rotate(41.6573 72.4715 85.1451)" fill="white"/>
<circle opacity="0.3" cx="97.5868" cy="56.9146" r="11.8812" transform="rotate(41.6573 97.5868 56.9146)" fill="white"/>
<circle opacity="0.3" cx="122.702" cy="28.6831" r="11.8812" transform="rotate(41.6573 122.702 28.6831)" fill="white"/>
<circle opacity="0.3" cx="73.55" cy="136.679" r="11.8812" transform="rotate(41.6573 73.55 136.679)" fill="white"/>
<circle opacity="0.3" cx="98.6653" cy="108.449" r="11.8812" transform="rotate(41.6573 98.6653 108.449)" fill="white"/>
<circle opacity="0.3" cx="123.781" cy="80.2173" r="11.8812" transform="rotate(41.6573 123.781 80.2173)" fill="white"/>
<circle opacity="0.3" cx="148.896" cy="51.9859" r="11.8812" transform="rotate(41.6573 148.896 51.9859)" fill="white"/>
<circle opacity="0.3" cx="-2.99487" cy="198.005" r="11.8812" transform="rotate(41.6573 -2.99487 198.005)" fill="white"/>
<circle opacity="0.3" cx="22.1204" cy="169.774" r="11.8812" transform="rotate(41.6573 22.1204 169.774)" fill="white"/>
<circle opacity="0.3" cx="-1.91637" cy="249.54" r="11.8812" transform="rotate(41.6573 -1.91637 249.54)" fill="white"/>
<circle opacity="0.3" cx="23.1989" cy="221.308" r="11.8812" transform="rotate(41.6573 23.1989 221.308)" fill="white"/>
<circle opacity="0.3" cx="48.3145" cy="193.077" r="11.8812" transform="rotate(41.6573 48.3145 193.077)" fill="white"/>
<circle opacity="0.3" cx="-0.837858" cy="301.074" r="11.8812" transform="rotate(41.6573 -0.837858 301.074)" fill="white"/>
<circle opacity="0.3" cx="24.2774" cy="272.842" r="11.8812" transform="rotate(41.6573 24.2774 272.842)" fill="white"/>
<circle opacity="0.3" cx="49.393" cy="244.611" r="11.8812" transform="rotate(41.6573 49.393 244.611)" fill="white"/>
<circle opacity="0.3" cx="74.5083" cy="216.379" r="11.8812" transform="rotate(41.6573 74.5083 216.379)" fill="white"/>
<circle opacity="0.3" cx="25.3559" cy="324.376" r="11.8812" transform="rotate(41.6573 25.3559 324.376)" fill="white"/>
<circle opacity="0.3" cx="50.4715" cy="296.145" r="11.8812" transform="rotate(41.6573 50.4715 296.145)" fill="white"/>
<circle opacity="0.3" cx="75.5868" cy="267.915" r="11.8812" transform="rotate(41.6573 75.5868 267.915)" fill="white"/>
<circle opacity="0.3" cx="100.702" cy="239.683" r="11.8812" transform="rotate(41.6573 100.702 239.683)" fill="white"/>
<circle opacity="0.3" cx="51.55" cy="347.679" r="11.8812" transform="rotate(41.6573 51.55 347.679)" fill="white"/>
<circle opacity="0.3" cx="76.6653" cy="319.449" r="11.8812" transform="rotate(41.6573 76.6653 319.449)" fill="white"/>
<circle opacity="0.3" cx="101.781" cy="291.217" r="11.8812" transform="rotate(41.6573 101.781 291.217)" fill="white"/>
<circle opacity="0.3" cx="126.896" cy="262.986" r="11.8812" transform="rotate(41.6573 126.896 262.986)" fill="white"/>
<circle opacity="0.3" cx="762.774" cy="235.467" r="11.8812" transform="rotate(41.6573 762.774 235.467)" fill="white"/>
<circle opacity="0.3" cx="787.889" cy="207.237" r="11.8812" transform="rotate(41.6573 787.889 207.237)" fill="white"/>
<circle opacity="0.3" cx="813.005" cy="179.005" r="11.8812" transform="rotate(41.6573 813.005 179.005)" fill="white"/>
<circle opacity="0.3" cx="838.12" cy="150.774" r="11.8812" transform="rotate(41.6573 838.12 150.774)" fill="white"/>
<circle opacity="0.3" cx="788.968" cy="258.771" r="11.8812" transform="rotate(41.6573 788.968 258.771)" fill="white"/>
<circle opacity="0.3" cx="814.084" cy="230.54" r="11.8812" transform="rotate(41.6573 814.084 230.54)" fill="white"/>
<circle opacity="0.3" cx="839.199" cy="202.308" r="11.8812" transform="rotate(41.6573 839.199 202.308)" fill="white"/>
<circle opacity="0.3" cx="864.315" cy="174.077" r="11.8812" transform="rotate(41.6573 864.315 174.077)" fill="white"/>
<circle opacity="0.3" cx="815.162" cy="282.074" r="11.8812" transform="rotate(41.6573 815.162 282.074)" fill="white"/>
<circle opacity="0.3" cx="840.277" cy="253.842" r="11.8812" transform="rotate(41.6573 840.277 253.842)" fill="white"/>
<circle opacity="0.3" cx="865.393" cy="225.611" r="11.8812" transform="rotate(41.6573 865.393 225.611)" fill="white"/>
<circle opacity="0.3" cx="890.508" cy="197.379" r="11.8812" transform="rotate(41.6573 890.508 197.379)" fill="white"/>
<circle opacity="0.3" cx="841.356" cy="305.376" r="11.8812" transform="rotate(41.6573 841.356 305.376)" fill="white"/>
<circle opacity="0.3" cx="866.472" cy="277.145" r="11.8812" transform="rotate(41.6573 866.472 277.145)" fill="white"/>
<circle opacity="0.3" cx="891.587" cy="248.915" r="11.8812" transform="rotate(41.6573 891.587 248.915)" fill="white"/>
<circle opacity="0.3" cx="916.702" cy="220.683" r="11.8812" transform="rotate(41.6573 916.702 220.683)" fill="white"/>
<circle opacity="0.3" cx="867.55" cy="328.679" r="11.8812" transform="rotate(41.6573 867.55 328.679)" fill="white"/>
<circle opacity="0.3" cx="892.665" cy="300.449" r="11.8812" transform="rotate(41.6573 892.665 300.449)" fill="white"/>
<circle opacity="0.3" cx="917.781" cy="272.217" r="11.8812" transform="rotate(41.6573 917.781 272.217)" fill="white"/>
<circle opacity="0.3" cx="942.896" cy="243.986" r="11.8812" transform="rotate(41.6573 942.896 243.986)" fill="white"/>
<path opacity="0.3" d="M1280.35 503.995C1260.84 473.529 1281.62 433.361 1317.76 431.694L1409.46 427.463C1445.61 425.795 1470 463.878 1453.37 496.012L1411.19 577.543C1394.56 609.677 1349.38 611.761 1329.87 581.295L1280.35 503.995Z" fill="white"/>
<path opacity="0.3" d="M1302.81 733.504C1288.05 710.047 1304.22 679.411 1331.92 678.36L1365.29 677.093C1392.98 676.041 1411.43 705.362 1398.49 729.871L1382.9 759.404C1369.97 783.912 1335.35 785.226 1320.59 761.769L1302.81 733.504Z" fill="white"/>
<path opacity="0.3" d="M1312.14 351.517C1307.22 343.698 1312.61 333.486 1321.84 333.135L1358.44 331.746C1367.67 331.395 1373.82 341.169 1369.51 349.339L1352.41 381.727C1348.1 389.897 1336.56 390.335 1331.64 382.516L1312.14 351.517Z" fill="white"/>
</g>
<defs>
<linearGradient id="paint0_linear_787_2" x1="960" y1="0" x2="960" y2="924" gradientUnits="userSpaceOnUse">
<stop stop-color="#63F7F0"/>
<stop offset="1" stop-color="#28D0E2"/>
</linearGradient>
<clipPath id="clip0_787_2">
<rect width="1920" height="924" fill="white"/>
</clipPath>
</defs>
</svg>
