<svg width="1440" height="758" viewBox="0 0 1440 758" fill="none" xmlns="http://www.w3.org/2000/svg">
<mask id="mask0_110_14647" style="mask-type:alpha" maskUnits="userSpaceOnUse" x="0" y="0" width="1442" height="758">
<rect opacity="0.75" width="1442" height="758" fill="url(#paint0_linear_110_14647)"/>
</mask>
<g mask="url(#mask0_110_14647)">
<rect opacity="0.75" width="1442" height="758" fill="url(#paint1_linear_110_14647)"/>
<path opacity="0.3" d="M229.205 674.897C229.205 816.891 114.096 931.999 -27.8976 931.999C-169.891 931.999 -285 816.891 -285 674.897C-285 532.903 -169.891 417.794 -27.8976 417.794C114.096 417.794 229.205 532.903 229.205 674.897ZM-207.723 674.897C-207.723 774.211 -127.212 854.722 -27.8976 854.722C71.417 854.722 151.927 774.211 151.927 674.897C151.927 575.582 71.417 495.072 -27.8976 495.072C-127.212 495.072 -207.723 575.582 -207.723 674.897Z" fill="white"/>
<path opacity="0.3" d="M1480.41 708.432C1480.41 763.356 1435.89 807.881 1380.96 807.881C1326.04 807.881 1281.51 763.356 1281.51 708.432C1281.51 653.508 1326.04 608.983 1380.96 608.983C1435.89 608.983 1480.41 653.508 1480.41 708.432ZM1299.15 708.432C1299.15 753.615 1335.78 790.243 1380.96 790.243C1426.15 790.243 1462.77 753.615 1462.77 708.432C1462.77 663.25 1426.15 626.622 1380.96 626.622C1335.78 626.622 1299.15 663.25 1299.15 708.432Z" fill="white"/>
<path opacity="0.3" d="M227.898 121.449C227.898 176.373 183.373 220.898 128.449 220.898C73.5248 220.898 29 176.373 29 121.449C29 66.5248 73.5248 22 128.449 22C183.373 22 227.898 66.5248 227.898 121.449ZM46.6382 121.449C46.6382 166.632 83.2661 203.26 128.449 203.26C173.632 203.26 210.26 166.632 210.26 121.449C210.26 76.2661 173.632 39.6382 128.449 39.6382C83.2661 39.6382 46.6382 76.2661 46.6382 121.449Z" fill="white"/>
<path opacity="0.3" d="M1562.13 704.577C1562.13 806.336 1479.64 888.828 1377.88 888.828C1276.12 888.828 1193.63 806.336 1193.63 704.577C1193.63 602.819 1276.12 520.327 1377.88 520.327C1479.64 520.327 1562.13 602.819 1562.13 704.577ZM1244.9 704.577C1244.9 778.019 1304.44 837.554 1377.88 837.554C1451.32 837.554 1510.86 778.019 1510.86 704.577C1510.86 631.136 1451.32 571.601 1377.88 571.601C1304.44 571.601 1244.9 631.136 1244.9 704.577Z" fill="white"/>
<circle opacity="0.3" cx="1408.74" cy="169.658" r="21.5092" transform="rotate(-39.1211 1408.74 169.658)" fill="white"/>
<circle opacity="0.3" cx="1365.58" cy="116.587" r="21.5092" transform="rotate(-39.1211 1365.58 116.587)" fill="white"/>
<circle opacity="0.3" cx="1322.42" cy="63.517" r="21.5092" transform="rotate(-39.1211 1322.42 63.517)" fill="white"/>
<circle opacity="0.3" cx="1279.26" cy="10.4462" r="21.5092" transform="rotate(-39.1211 1279.26 10.4462)" fill="white"/>
<circle opacity="0.3" cx="1457.98" cy="129.611" r="21.5092" transform="rotate(-39.1211 1457.98 129.611)" fill="white"/>
<circle opacity="0.3" cx="1414.82" cy="76.5404" r="21.5092" transform="rotate(-39.1211 1414.82 76.5404)" fill="white"/>
<circle opacity="0.3" cx="1371.66" cy="23.4696" r="21.5092" transform="rotate(-39.1211 1371.66 23.4696)" fill="white"/>
<circle opacity="0.3" cx="1328.5" cy="-29.6007" r="21.5092" transform="rotate(-39.1211 1328.5 -29.6007)" fill="white"/>
<circle opacity="0.3" cx="1464.06" cy="36.4936" r="21.5092" transform="rotate(-39.1211 1464.06 36.4936)" fill="white"/>
<circle opacity="0.3" cx="1420.9" cy="-16.5772" r="21.5092" transform="rotate(-39.1211 1420.9 -16.5772)" fill="white"/>
<circle opacity="0.3" cx="-7.69759" cy="14.3577" r="9.15947" transform="rotate(41.6573 -7.69759 14.3577)" fill="white"/>
<circle opacity="0.3" cx="-6.86617" cy="54.0862" r="9.15947" transform="rotate(41.6573 -6.86617 54.0862)" fill="white"/>
<circle opacity="0.3" cx="12.4958" cy="32.3225" r="9.15947" transform="rotate(41.6573 12.4958 32.3225)" fill="white"/>
<circle opacity="0.3" cx="-4.46443" cy="194.987" r="9.15947" transform="rotate(41.6573 -4.46443 194.987)" fill="white"/>
<circle opacity="0.3" cx="176.072" cy="123.351" r="9.15947" transform="rotate(41.6573 176.072 123.351)" fill="white"/>
<circle opacity="0.3" cx="195.434" cy="101.587" r="9.15947" transform="rotate(41.6573 195.434 101.587)" fill="white"/>
<circle opacity="0.3" cx="214.796" cy="79.8235" r="9.15947" transform="rotate(41.6573 214.796 79.8235)" fill="white"/>
<circle opacity="0.3" cx="234.158" cy="58.0593" r="9.15947" transform="rotate(41.6573 234.158 58.0593)" fill="white"/>
<circle opacity="0.3" cx="196.265" cy="141.316" r="9.15947" transform="rotate(41.6573 196.265 141.316)" fill="white"/>
<circle opacity="0.3" cx="215.628" cy="119.552" r="9.15947" transform="rotate(41.6573 215.628 119.552)" fill="white"/>
<circle opacity="0.3" cx="234.99" cy="97.7879" r="9.15947" transform="rotate(41.6573 234.99 97.7879)" fill="white"/>
<circle opacity="0.3" cx="254.352" cy="76.0237" r="9.15947" transform="rotate(41.6573 254.352 76.0237)" fill="white"/>
<circle opacity="0.3" cx="216.459" cy="159.281" r="9.15947" transform="rotate(41.6573 216.459 159.281)" fill="white"/>
<circle opacity="0.3" cx="235.821" cy="137.517" r="9.15947" transform="rotate(41.6573 235.821 137.517)" fill="white"/>
<circle opacity="0.3" cx="255.183" cy="115.753" r="9.15947" transform="rotate(41.6573 255.183 115.753)" fill="white"/>
<circle opacity="0.3" cx="274.545" cy="93.9885" r="9.15947" transform="rotate(41.6573 274.545 93.9885)" fill="white"/>
<circle opacity="0.3" cx="236.652" cy="177.245" r="9.15947" transform="rotate(41.6573 236.652 177.245)" fill="white"/>
<circle opacity="0.3" cx="256.015" cy="155.482" r="9.15947" transform="rotate(41.6573 256.015 155.482)" fill="white"/>
<circle opacity="0.3" cx="275.377" cy="133.718" r="9.15947" transform="rotate(41.6573 275.377 133.718)" fill="white"/>
<circle opacity="0.3" cx="294.739" cy="111.953" r="9.15947" transform="rotate(41.6573 294.739 111.953)" fill="white"/>
<circle opacity="0.3" cx="256.846" cy="195.211" r="9.15947" transform="rotate(41.6573 256.846 195.211)" fill="white"/>
<circle opacity="0.3" cx="276.208" cy="173.447" r="9.15947" transform="rotate(41.6573 276.208 173.447)" fill="white"/>
<circle opacity="0.3" cx="295.57" cy="151.682" r="9.15947" transform="rotate(41.6573 295.57 151.682)" fill="white"/>
<circle opacity="0.3" cx="314.932" cy="129.918" r="9.15947" transform="rotate(41.6573 314.932 129.918)" fill="white"/>
<path opacity="0.3" d="M884.759 380.786C869.715 357.299 885.737 326.333 913.6 325.048L984.294 321.786C1012.16 320.5 1030.96 349.859 1018.14 374.632L985.623 437.486C972.804 462.259 937.976 463.866 922.931 440.378L884.759 380.786Z" fill="white"/>
<path opacity="0.3" d="M902.074 557.72C890.698 539.636 903.163 516.019 924.512 515.208L950.238 514.231C971.587 513.421 985.808 536.025 975.835 554.919L963.818 577.687C953.846 596.581 927.16 597.594 915.783 579.511L902.074 557.72Z" fill="white"/>
<path opacity="0.3" d="M909.266 263.238C905.474 257.21 909.629 249.337 916.746 249.067L944.959 247.996C952.075 247.725 956.815 255.26 953.491 261.558L940.312 286.527C936.988 292.825 928.093 293.163 924.301 287.135L909.266 263.238Z" fill="white"/>
</g>
<defs>
<linearGradient id="paint0_linear_110_14647" x1="721" y1="0" x2="721" y2="758" gradientUnits="userSpaceOnUse">
<stop stop-color="#35A8B0"/>
<stop offset="1" stop-color="#4FC5CD"/>
</linearGradient>
<linearGradient id="paint1_linear_110_14647" x1="721" y1="0" x2="721" y2="758" gradientUnits="userSpaceOnUse">
<stop stop-color="#35A8B0"/>
<stop offset="1" stop-color="#4FC5CD"/>
</linearGradient>
</defs>
</svg>
