<svg width="2224" height="679" viewBox="0 0 2224 679" fill="none" xmlns="http://www.w3.org/2000/svg">
<path d="M1812.95 463.075C1812.95 489.846 1791.19 511.702 1764.42 511.702C1751.54 511.665 1739.2 506.528 1730.1 497.415C1721 488.301 1715.88 475.954 1715.86 463.075C1715.88 450.2 1721 437.858 1730.1 428.75C1739.2 419.641 1751.54 414.507 1764.42 414.471H1812.95V463.075ZM1837.44 463.075C1837.44 436.303 1859.22 414.471 1885.99 414.471C1898.87 414.513 1911.2 419.65 1920.29 428.758C1929.39 437.866 1934.5 450.204 1934.53 463.075V584.792C1934.5 597.663 1929.39 610.001 1920.29 619.109C1911.2 628.217 1898.87 633.353 1885.99 633.396C1873.12 633.372 1860.77 628.242 1851.67 619.131C1842.57 610.02 1837.45 597.671 1837.44 584.792V463.075ZM1885.99 267.943C1859.22 267.943 1837.44 246.065 1837.44 219.316C1837.44 192.568 1859.22 170.712 1885.99 170.712C1898.87 170.755 1911.2 175.892 1920.29 184.999C1929.39 194.107 1934.5 206.445 1934.53 219.316V267.943H1885.99ZM1885.99 292.407C1898.87 292.45 1911.2 297.589 1920.3 306.702C1929.39 315.815 1934.51 328.159 1934.53 341.034C1934.5 353.905 1929.39 366.243 1920.29 375.351C1911.2 384.459 1898.87 389.595 1885.99 389.638H1764.44C1751.56 389.601 1739.23 384.467 1730.13 375.359C1721.03 366.251 1715.91 353.909 1715.88 341.034C1715.9 328.155 1721.02 315.807 1730.12 306.694C1739.22 297.581 1751.56 292.444 1764.44 292.407H1885.99ZM2080.94 341.034C2080.94 314.263 2102.7 292.407 2129.48 292.407C2142.35 292.444 2154.69 297.581 2163.8 306.694C2172.9 315.807 2178.02 328.155 2178.03 341.034C2178.01 353.909 2172.89 366.251 2163.79 375.359C2154.69 384.467 2142.35 389.601 2129.48 389.638H2080.94V341.034ZM2056.45 341.034C2056.45 367.805 2034.67 389.638 2007.9 389.638C1995.03 389.595 1982.69 384.459 1973.6 375.351C1964.51 366.243 1959.39 353.905 1959.36 341.034V219.316C1959.39 206.445 1964.51 194.107 1973.6 184.999C1982.69 175.892 1995.03 170.755 2007.9 170.712C2034.67 170.712 2056.45 192.545 2056.45 219.316V341.034ZM2007.9 536.165C2034.67 536.165 2056.45 558.044 2056.45 584.792C2056.45 611.541 2034.67 633.396 2007.9 633.396C1995.03 633.353 1982.69 628.217 1973.6 619.109C1964.51 610.001 1959.39 597.663 1959.36 584.792V536.165H2007.9ZM2007.9 511.702C1995.02 511.659 1982.69 506.519 1973.59 497.406C1964.5 488.294 1959.38 475.95 1959.36 463.075C1959.39 450.204 1964.51 437.866 1973.6 428.758C1982.69 419.65 1995.03 414.513 2007.9 414.471H2129.48C2142.35 414.507 2154.69 419.641 2163.79 428.75C2172.89 437.858 2178.01 450.2 2178.03 463.075C2178.02 475.954 2172.9 488.301 2163.8 497.415C2154.69 506.528 2142.35 511.665 2129.48 511.702H2007.9Z" fill="#39ACB4" fill-opacity="0.33"/>
<path d="M142.95 337.966C142.95 364.737 121.187 386.593 94.4153 386.593C81.5363 386.556 69.1962 381.419 60.0958 372.306C50.9954 363.192 45.8758 350.845 45.8575 337.966C45.8819 325.091 51.0042 312.749 60.1039 303.641C69.2037 294.532 81.5403 289.398 94.4153 289.362H142.95V337.966ZM167.437 337.966C167.437 311.194 189.223 289.362 215.994 289.362C228.865 289.404 241.196 294.541 250.291 303.649C259.386 312.757 264.505 325.095 264.529 337.966V459.683C264.505 472.554 259.386 484.892 250.291 494C241.196 503.108 228.865 508.245 215.994 508.287C203.116 508.263 190.772 503.133 181.67 494.022C172.567 484.911 167.449 472.562 167.437 459.683V337.966ZM215.994 142.834C189.223 142.834 167.437 120.956 167.437 94.2075C167.437 67.4591 189.223 45.6035 215.994 45.6035C228.865 45.6462 241.196 50.7829 250.291 59.8906C259.386 68.9984 264.505 81.3364 264.529 94.2075V142.834H215.994ZM215.994 167.298C228.869 167.341 241.204 172.481 250.299 181.593C259.395 190.706 264.511 203.05 264.529 215.925C264.505 228.796 259.386 241.134 250.291 250.242C241.196 259.35 228.865 264.486 215.994 264.529H94.4384C81.5633 264.492 69.2267 259.358 60.127 250.25C51.0272 241.142 45.905 228.8 45.8806 215.925C45.8989 203.046 51.0184 190.699 60.1189 181.585C69.2193 172.472 81.5594 167.335 94.4384 167.298H215.994ZM410.941 215.925C410.941 189.154 432.704 167.298 459.476 167.298C472.355 167.335 484.695 172.472 493.795 181.585C502.896 190.699 508.015 203.046 508.034 215.925C508.009 228.8 502.887 241.142 493.787 250.25C484.687 259.358 472.351 264.492 459.476 264.529H410.941V215.925ZM386.454 215.925C386.454 242.696 364.668 264.529 337.897 264.529C325.026 264.486 312.695 259.35 303.6 250.242C294.505 241.134 289.386 228.796 289.362 215.925V94.2075C289.386 81.3364 294.505 68.9984 303.6 59.8906C312.695 50.7829 325.026 45.6462 337.897 45.6035C364.668 45.6035 386.454 67.4361 386.454 94.2075V215.925ZM337.897 411.056C364.668 411.056 386.454 432.935 386.454 459.683C386.454 486.432 364.668 508.287 337.897 508.287C325.026 508.245 312.695 503.108 303.6 494C294.505 484.892 289.386 472.554 289.362 459.683V411.056H337.897ZM337.897 386.593C325.022 386.55 312.687 381.41 303.592 372.297C294.497 363.185 289.38 350.841 289.362 337.966C289.386 325.095 294.505 312.757 303.6 303.649C312.695 294.541 325.026 289.404 337.897 289.362H459.476C472.351 289.398 484.687 294.532 493.787 303.641C502.887 312.749 508.009 325.091 508.034 337.966C508.015 350.845 502.896 363.192 493.795 372.306C484.695 381.419 472.355 386.556 459.476 386.593H337.897Z" fill="#39ACB4" fill-opacity="0.33"/>
</svg>
