<svg width="819" height="281" viewBox="0 0 819 281" fill="none" xmlns="http://www.w3.org/2000/svg">
<g opacity="0.3" filter="url(#filter0_f_353_15546)">
<path d="M718.586 20.7247C691.308 -2.74399 652.23 17.8422 649.961 56.8574L648.827 76.4766H637.497C634.273 76.4766 631.181 77.9461 628.901 80.5617C626.622 83.1773 625.341 86.7249 625.341 90.4239C625.341 94.123 626.622 97.6705 628.901 100.286C631.181 102.902 634.273 104.371 637.497 104.371H647.19L640.382 221.398C640.174 224.996 639.239 228.488 637.652 231.6C636.064 234.711 633.868 237.356 631.236 239.326C628.604 241.296 625.609 242.536 622.487 242.949C619.366 243.362 616.203 242.936 613.25 241.706L609.247 240.032C607.746 239.405 606.153 239.124 604.557 239.204C602.962 239.285 601.396 239.724 599.949 240.499C598.502 241.273 597.202 242.367 596.123 243.718C595.045 245.069 594.208 246.651 593.662 248.372C593.117 250.094 592.871 251.922 592.941 253.753C593.011 255.583 593.395 257.38 594.07 259.04C594.745 260.7 595.698 262.192 596.875 263.429C598.053 264.667 599.431 265.626 600.932 266.253L604.951 267.926C611.449 270.635 618.406 271.572 625.274 270.664C632.141 269.757 638.73 267.028 644.521 262.696C650.311 258.363 655.143 252.544 658.636 245.7C662.129 238.855 664.186 231.172 664.646 223.258L671.566 104.371H694.225C697.449 104.371 700.541 102.902 702.821 100.286C705.101 97.6705 706.381 94.123 706.381 90.4239C706.381 86.7249 705.101 83.1773 702.821 80.5617C700.541 77.9461 697.449 76.4766 694.225 76.4766H673.187L674.208 58.7171C674.432 54.8739 675.556 51.1714 677.462 48.0005C679.367 44.8297 681.984 42.3082 685.036 40.7025C688.087 39.0967 691.46 38.4663 694.797 38.8778C698.135 39.2893 701.314 40.7274 703.999 43.0403L707.192 45.7926C708.469 46.8915 709.922 47.6911 711.468 48.1457C713.015 48.6002 714.624 48.7009 716.204 48.4419C717.785 48.1828 719.305 47.5692 720.679 46.636C722.052 45.7029 723.252 44.4684 724.21 43.0031C725.168 41.5379 725.865 39.8705 726.261 38.0962C726.657 36.3219 726.745 34.4755 726.519 32.6623C726.293 30.8491 725.759 29.1047 724.945 27.5287C724.132 25.9527 723.056 24.5759 721.779 23.4769L718.586 20.7247Z" fill="white"/>
<path d="M733.226 135.267C731.268 131.694 728.615 128.666 725.466 126.41C722.317 124.153 718.754 122.727 715.044 122.239C711.335 121.75 707.575 122.212 704.047 123.589C700.519 124.967 697.315 127.224 694.674 130.191L689.265 136.268C687.081 138.902 685.892 142.386 685.948 145.986C686.005 149.585 687.303 153.02 689.569 155.566C691.834 158.111 694.891 159.57 698.095 159.633C701.299 159.697 704.4 158.36 706.744 155.906L712.169 149.829L731.825 185.715L693.388 228.919C691.203 231.553 690.014 235.037 690.071 238.637C690.127 242.237 691.425 245.671 693.691 248.217C695.957 250.763 699.014 252.221 702.218 252.285C705.421 252.348 708.522 251.012 710.867 248.557L745.148 210.059L761.72 240.313C763.678 243.886 766.331 246.915 769.48 249.171C772.629 251.428 776.192 252.853 779.902 253.342C783.611 253.83 787.371 253.369 790.899 251.991C794.427 250.614 797.631 248.357 800.272 245.389L805.681 239.313C807.865 236.679 809.054 233.195 808.998 229.595C808.941 225.995 807.643 222.561 805.377 220.015C803.112 217.469 800.055 216.011 796.851 215.947C793.647 215.884 790.546 217.22 788.202 219.675L782.777 225.751L763.121 189.865L801.558 146.661C803.743 144.027 804.932 140.543 804.875 136.944C804.819 133.344 803.521 129.909 801.255 127.364C798.989 124.818 795.932 123.36 792.728 123.296C789.525 123.233 786.424 124.569 784.079 127.023L749.782 165.503L733.226 135.267Z" fill="white"/>
</g>
<g opacity="0.3" filter="url(#filter1_f_353_15546)">
<path d="M179.014 150.067H214.472L241.065 123.474L214.472 96.8809H179.014M343.006 225.415C343.006 223.064 342.072 220.809 340.41 219.147C338.747 217.485 336.492 216.551 334.141 216.551H183.446C181.095 216.551 178.84 217.485 177.178 219.147C175.515 220.809 174.582 223.064 174.582 225.415V256.441H343.006V225.415Z" stroke="white" stroke-width="14.5" stroke-linecap="round" stroke-linejoin="round"/>
<path d="M329.709 141.203C319.917 141.203 311.98 133.265 311.98 123.474C311.98 113.683 319.917 105.745 329.709 105.745C339.5 105.745 347.438 113.683 347.438 123.474C347.438 133.265 339.5 141.203 329.709 141.203Z" stroke="white" stroke-width="14.5"/>
<path d="M311.979 123.475H241.064M320.844 141.203L285.386 216.551" stroke="white" stroke-width="14.5" stroke-linecap="round" stroke-linejoin="round"/>
</g>
<g opacity="0.3" filter="url(#filter2_f_353_15546)">
<path d="M10 261V244.579H51.0714V228.158C39.7083 228.158 30.0237 224.154 22.0175 216.146C14.0113 208.138 10.0055 198.458 10 187.105C10 179.305 11.9851 172.121 15.9554 165.553C19.9256 158.984 25.4018 153.989 32.3839 150.568C31.8363 153.579 31.9404 156.521 32.6961 159.395C33.4518 162.268 34.6483 165.005 36.2857 167.605C33.1369 169.795 30.7055 172.6 28.9914 176.021C27.2774 179.442 26.4231 183.137 26.4286 187.105C26.4286 193.947 28.8244 199.763 33.6161 204.553C38.4077 209.342 44.2262 211.737 51.0714 211.737H116.786V228.158H75.7143V244.579H125V261H10ZM83.9286 187.926L81.4643 180.126L73.6607 183L69.5536 172.121C72.2917 169.932 74.4137 167.299 75.9196 164.223C77.4256 161.146 78.1786 157.827 78.1786 154.263C78.1786 147.832 75.9196 142.393 71.4018 137.949C66.8839 133.504 61.3393 131.279 54.7679 131.274L51.0714 121.011L58.875 118.137L56 110.747L71.6071 105L74.0714 112.8L81.875 109.926L104.464 171.505L96.6607 174.379L99.5357 182.179L83.9286 187.926ZM55.1786 169.042C51.0714 169.042 47.5804 167.605 44.7054 164.732C41.8304 161.858 40.3929 158.368 40.3929 154.263C40.3929 150.158 41.8304 146.668 44.7054 143.795C47.5804 140.921 51.0714 139.484 55.1786 139.484C59.2857 139.484 62.7768 140.921 65.6518 143.795C68.5268 146.668 69.9643 150.158 69.9643 154.263C69.9643 158.368 68.5268 161.858 65.6518 164.732C62.7768 167.605 59.2857 169.042 55.1786 169.042Z" fill="white"/>
</g>
<g opacity="0.3" filter="url(#filter3_f_353_15546)">
<path d="M559.272 216.767L505.338 140.064V65.4286H520.255V50H430.752V65.4286H445.669V140.064L391.736 216.767C388.483 221.392 386.53 226.857 386.093 232.558C385.657 238.259 386.754 243.974 389.263 249.07C391.773 254.166 395.596 258.445 400.311 261.433C405.025 264.421 410.447 266.001 415.976 266H535.024C540.553 266.001 545.975 264.421 550.689 261.433C555.404 258.445 559.227 254.166 561.737 249.07C564.246 243.974 565.343 238.259 564.907 232.558C564.47 226.857 562.517 221.392 559.264 216.767H559.272ZM460.586 145.079V65.4286H490.421V145.079L510.358 173.429H440.65L460.586 145.079ZM535.031 250.571H415.984C413.208 250.568 410.486 249.772 408.12 248.27C405.754 246.768 403.835 244.62 402.575 242.061C401.315 239.503 400.763 236.634 400.98 233.771C401.197 230.909 402.174 228.164 403.804 225.839L429.805 188.857H521.203L547.211 225.839C548.841 228.164 549.818 230.909 550.035 233.771C550.252 236.634 549.7 239.503 548.44 242.061C547.18 244.62 545.261 246.768 542.895 248.27C540.529 249.772 537.807 250.568 535.031 250.571Z" fill="white"/>
</g>
<defs>
<filter id="filter0_f_353_15546" x="582.93" y="0.796875" width="236.07" height="280.204" filterUnits="userSpaceOnUse" color-interpolation-filters="sRGB">
<feFlood flood-opacity="0" result="BackgroundImageFix"/>
<feBlend mode="normal" in="SourceGraphic" in2="BackgroundImageFix" result="shape"/>
<feGaussianBlur stdDeviation="5" result="effect1_foregroundBlur_353_15546"/>
</filter>
<filter id="filter1_f_353_15546" x="157.332" y="79.6309" width="207.355" height="194.06" filterUnits="userSpaceOnUse" color-interpolation-filters="sRGB">
<feFlood flood-opacity="0" result="BackgroundImageFix"/>
<feBlend mode="normal" in="SourceGraphic" in2="BackgroundImageFix" result="shape"/>
<feGaussianBlur stdDeviation="5" result="effect1_foregroundBlur_353_15546"/>
</filter>
<filter id="filter2_f_353_15546" x="0" y="95" width="135" height="176" filterUnits="userSpaceOnUse" color-interpolation-filters="sRGB">
<feFlood flood-opacity="0" result="BackgroundImageFix"/>
<feBlend mode="normal" in="SourceGraphic" in2="BackgroundImageFix" result="shape"/>
<feGaussianBlur stdDeviation="5" result="effect1_foregroundBlur_353_15546"/>
</filter>
<filter id="filter3_f_353_15546" x="376" y="40" width="199" height="236" filterUnits="userSpaceOnUse" color-interpolation-filters="sRGB">
<feFlood flood-opacity="0" result="BackgroundImageFix"/>
<feBlend mode="normal" in="SourceGraphic" in2="BackgroundImageFix" result="shape"/>
<feGaussianBlur stdDeviation="5" result="effect1_foregroundBlur_353_15546"/>
</filter>
</defs>
</svg>
