<svg width="278" height="44" viewBox="0 0 278 44" fill="none" xmlns="http://www.w3.org/2000/svg">
<path d="M201.102 30.7583C202.747 30.9839 204.039 28.9085 204.479 27.8427C204.686 27.3966 203.585 26.9484 203.128 28.0079C202.671 29.0674 199.045 30.4762 201.102 30.7583Z" fill="#39ACB4"/>
<path d="M204.738 26.5831C204.992 26.2623 204.63 25.5301 204.417 25.2042C203.506 24.8596 203.718 25.8314 203.753 26.3106C203.788 26.7898 204.421 26.9842 204.738 26.5831Z" fill="#39ACB4"/>
<path d="M26.8079 38.0255C28.5292 36.8648 28.2368 33.4066 27.8754 31.8226C27.7456 31.1404 26.377 31.5807 26.7178 33.172C27.0586 34.7633 24.6562 39.4763 26.8079 38.0255Z" fill="#39ACB4"/>
<path d="M27.2016 30.1753C27.2074 29.5942 26.3306 29.078 25.8914 28.8925C24.7783 29.2866 25.6875 30.2034 26.0705 30.715C26.4534 31.2266 27.1944 30.9016 27.2016 30.1753Z" fill="#39ACB4"/>
<path d="M21.0559 15.0192C29.7355 26.9516 30.5086 34.2911 29.8102 36.4693H41.7592C38.9379 35.8262 29.0219 15.7038 21.0559 0C13.5252 14.8471 2.46863 36.4693 0 36.4693H13.1107C10.7209 31.7063 17.4118 20.1846 21.0559 15.0192Z" fill="#39ACB4"/>
<path d="M60.7516 38.8343C59.8884 38.8343 59.0454 38.7844 58.2229 38.6845C56.7036 38.5001 55.2538 38.1454 53.8733 37.6205C51.7753 36.8113 49.9471 35.6724 48.3886 34.2038C46.8601 32.7352 45.6613 31.0119 44.7921 29.0338C43.9529 27.0557 43.5333 24.8978 43.5333 22.5601C43.5333 20.2224 43.9529 18.0645 44.7921 16.0864C45.6613 14.1083 46.8751 12.385 48.4336 10.9164C49.9921 9.44782 51.8203 8.30892 53.9182 7.49971C56.0162 6.6905 58.294 6.28589 60.7516 6.28589C63.2392 6.28589 65.517 6.6905 67.585 7.49971C69.6829 8.30892 71.4962 9.44782 73.0247 10.9164C74.5832 12.355 75.797 14.0633 76.6662 16.0414C77.5353 18.0195 77.9699 20.1924 77.9699 22.5601C77.9699 24.8978 77.5353 27.0707 76.6662 29.0788C75.797 31.0568 74.5832 32.7802 73.0247 34.2487C71.4962 35.6873 69.6829 36.8113 67.585 37.6205C67.3026 37.731 67.0164 37.8339 66.7262 37.9293C64.8911 38.5326 62.8995 38.8343 60.7516 38.8343ZM60.7516 32.6303C62.1602 32.6303 63.449 32.3905 64.6179 31.911C65.8167 31.4315 66.8657 30.7421 67.7648 29.843C68.6639 28.9439 69.3533 27.8799 69.8328 26.6511C70.3423 25.3923 70.597 24.0287 70.597 22.5601C70.597 21.0615 70.3423 19.6979 69.8328 18.4691C69.3533 17.2403 68.6639 16.1763 67.7648 15.2772C66.8657 14.378 65.8167 13.6887 64.6179 13.2092C63.449 12.7296 62.1602 12.4899 60.7516 12.4899C59.343 12.4899 58.0392 12.7296 56.8404 13.2092C55.6416 13.6887 54.5926 14.378 53.6935 15.2772C52.8243 16.1763 52.135 17.2403 51.6255 18.4691C51.1459 19.6979 50.9062 21.0615 50.9062 22.5601C50.9062 24.0287 51.1459 25.3923 51.6255 26.6511C52.135 27.8799 52.8243 28.9439 53.6935 29.843C54.5926 30.7421 55.6416 31.4315 56.8404 31.911C58.0392 32.3905 59.343 32.6303 60.7516 32.6303Z" fill="#39ACB4"/>
<path d="M199.004 38.8343C194.538 38.8343 191.047 37.5905 188.529 35.1029C186.012 32.6153 184.753 29.0638 184.753 24.4483V10.0201C184.753 8.25568 186.183 6.82536 187.948 6.82536H192.497C194.595 6.82536 196.124 8.81371 195.584 10.8414L192.036 24.1785C191.404 27.2171 192.65 29.3335 193.879 30.6522C195.108 31.971 196.831 32.6303 199.049 32.6303C201.267 32.6303 202.99 31.971 204.219 30.6522C205.448 29.3335 206.631 27.0719 206.062 24.1785L202.378 10.8725C201.815 8.83742 203.346 6.82536 205.457 6.82536H210.06C211.825 6.82536 213.255 8.25568 213.255 10.0201V24.4483C213.255 29.0638 211.996 32.6153 209.479 35.1029C206.961 37.5905 203.47 38.8343 199.004 38.8343Z" fill="#39ACB4"/>
<path d="M119 38.2948C116.687 38.2948 115.14 35.9125 116.082 33.7995L127.26 8.71947C127.774 7.56745 128.917 6.82536 130.178 6.82536H133.227C134.487 6.82536 135.629 7.56584 136.143 8.716L147.357 33.7961C148.302 35.9094 146.756 38.2948 144.441 38.2948H143.861C142.569 38.2948 141.404 37.5165 140.91 36.3227L130.768 11.8399C130.506 11.2074 130.971 10.5118 131.655 10.5118V10.5118C132.34 10.5118 132.805 11.2085 132.542 11.8411L122.359 36.3268C121.864 37.5184 120.7 38.2948 119.41 38.2948H119ZM124.987 31.5514C123.083 31.5514 121.749 29.6716 122.377 27.8741V27.8741C122.765 26.7647 123.812 26.0217 124.987 26.0217H137.262C138.429 26.0217 139.471 26.7556 139.865 27.8553V27.8553C140.509 29.6561 139.174 31.5514 137.262 31.5514H124.987Z" fill="#39ACB4"/>
<path d="M155.829 38.2948C154.064 38.2948 152.634 36.8645 152.634 35.1001V10.0201C152.634 8.25568 154.064 6.82536 155.829 6.82536H166.256C169.073 6.82536 171.501 7.28991 173.539 8.21901C175.577 9.11814 177.15 10.4219 178.259 12.1302C179.368 13.8386 179.922 15.8766 179.922 18.2443C179.922 20.582 179.368 22.605 178.259 24.3134C177.15 26.0217 175.577 27.3404 173.539 28.2695C171.501 29.1687 169.073 29.6182 166.256 29.6182H158.962C158.115 29.6182 157.688 28.5966 158.283 27.9933V27.9933C158.882 27.3856 159.917 27.81 159.917 28.6637V35.1001C159.917 36.8645 158.487 38.2948 156.722 38.2948H155.829ZM159.917 24.6636C159.917 25.5523 158.829 25.9818 158.222 25.3327V25.3327C157.636 24.7067 158.08 23.684 158.937 23.684H165.851C168.099 23.684 169.777 23.2045 170.886 22.2454C171.995 21.2863 172.55 19.9526 172.55 18.2443C172.55 16.506 171.995 15.1573 170.886 14.1982C169.777 13.2391 168.099 12.7596 165.851 12.7596H158.937C158.08 12.7596 157.636 11.7369 158.222 11.1109V11.1109C158.829 10.4618 159.917 10.8913 159.917 11.78V24.6636Z" fill="#39ACB4"/>
<path d="M223.614 38.2948C221.85 38.2948 220.42 36.8645 220.42 35.1001V10.0201C220.42 8.25568 221.85 6.82536 223.614 6.82536H234.041C236.859 6.82536 239.286 7.28991 241.324 8.21901C243.362 9.11814 244.936 10.4219 246.045 12.1302C247.154 13.8386 247.708 15.8766 247.708 18.2443C247.708 20.582 247.154 22.605 246.045 24.3134C244.936 25.9918 243.362 27.2805 241.324 28.1796C239.286 29.0788 236.859 29.5283 234.041 29.5283H226.761C225.919 29.5283 225.501 28.5077 226.1 27.9166V27.9166C226.695 27.3299 227.703 27.7514 227.703 28.5869V35.1001C227.703 36.8645 226.272 38.2948 224.508 38.2948H223.614ZM241.9 38.2948C240.964 38.2948 240.076 37.8846 239.469 37.1725L233.157 29.7671C230.793 26.9935 234.171 23.0603 237.269 24.9783L239.773 26.5281C240.144 26.7575 240.464 27.0604 240.713 27.4181L244.794 33.2736C246.27 35.3916 244.754 38.2948 242.173 38.2948H241.9ZM227.703 24.7025C227.703 25.5825 226.628 26.0109 226.022 25.372V25.372C225.435 24.7516 225.874 23.729 226.729 23.729H233.637C235.885 23.729 237.563 23.2494 238.672 22.2904C239.781 21.3013 240.335 19.9526 240.335 18.2443C240.335 16.506 239.781 15.1573 238.672 14.1982C237.563 13.2391 235.885 12.7596 233.637 12.7596H226.723C225.866 12.7596 225.422 11.7369 226.007 11.1109V11.1109C226.614 10.4617 227.703 10.8913 227.703 11.78V24.7025Z" fill="#39ACB4"/>
<path d="M257.878 22.3353C257.878 20.7711 259.146 19.5031 260.71 19.5031H272.495C274.059 19.5031 275.327 20.7711 275.327 22.3353V22.3353C275.327 23.8995 274.059 25.1676 272.495 25.1676H260.71C259.146 25.1676 257.878 23.8995 257.878 22.3353V22.3353ZM260.716 29.2558C260.716 31.0202 262.147 32.4505 263.911 32.4505H274.923C276.536 32.4505 277.845 33.7588 277.845 35.3726V35.3726C277.845 36.9865 276.536 38.2948 274.923 38.2948H256.673C254.909 38.2948 253.478 36.8645 253.478 35.1001V10.0201C253.478 8.25568 254.909 6.82536 256.673 6.82536H274.338C275.952 6.82536 277.26 8.13366 277.26 9.74753V9.74753C277.26 11.3614 275.952 12.6697 274.338 12.6697H263.911C262.147 12.6697 260.716 14.1 260.716 15.8644V29.2558Z" fill="#39ACB4"/>
<path d="M60.7516 38.8343C59.8884 38.8343 59.0454 38.7844 58.2229 38.6845C59.2003 39.7248 60.1181 40.6289 60.9764 41.3968C61.8911 42.1942 62.7691 42.8632 63.6104 43.4037C64.0573 43.6908 64.5826 43.8244 65.1138 43.8244H67.2442C69.2844 43.8244 70.2038 41.3632 68.7689 39.9129V39.9129C68.263 39.4015 67.8247 38.9991 67.1354 38.3398C67.0013 38.2115 66.8649 38.0746 66.7262 37.9293C64.8911 38.5326 62.8995 38.8343 60.7516 38.8343Z" fill="#39ACB4"/>
<path d="M97.4248 39.394C92.9591 39.394 89.4675 38.1503 86.9499 35.6627C84.4324 33.1751 83.1736 29.6235 83.1736 25.008V10.5798C83.1736 8.81543 84.6039 7.38512 86.3683 7.38512H87.2618C89.0262 7.38512 90.4565 8.81543 90.4565 10.5798V24.7383C90.4565 27.7354 91.0709 29.8933 92.2997 31.212C93.5285 32.5307 95.2519 33.1901 97.4697 33.1901C99.6876 33.1901 101.411 32.5307 102.64 31.212C103.868 29.8933 104.483 27.7354 104.483 24.7383V10.5798C104.483 8.81543 105.913 7.38512 107.678 7.38512H108.481C110.246 7.38512 111.676 8.81543 111.676 10.5798V25.008C111.676 29.6235 110.417 33.1751 107.9 35.6627C105.382 38.1503 101.89 39.394 97.4248 39.394Z" fill="#39ACB4"/>
</svg>
