<svg width="763" height="738" viewBox="0 0 763 738" fill="none" xmlns="http://www.w3.org/2000/svg">
<mask id="mask0_93_14644" style="mask-type:alpha" maskUnits="userSpaceOnUse" x="0" y="0" width="763" height="676">
<path d="M652.203 69.5C705.044 24.3 748.085 4.33333 763 0V360C745.311 399.249 734.392 437.732 726.274 466.343L726.273 466.345C723.625 475.678 721.275 483.96 719.086 490.875C710.053 519.4 694.32 553.012 675.324 585.162C661.24 609 652.272 551.39 657.5 531C664.801 502.527 670.59 496.265 688.099 477.325L688.1 477.323L706 457.5C706 457.5 715.838 434.803 719.721 419.518C724.082 402.356 715.885 398.553 726 374.614C705.384 391.492 708.678 416.197 708.678 416.197C708.678 416.197 712.109 441.925 689 460C621.425 512.854 624.362 558.095 626.438 590.078C626.646 593.277 626.844 596.343 626.964 599.271C594.68 615.538 521.278 648.727 481.5 653.5C431.5 659.5 348 657 333.5 653.5C327.657 652.09 314.833 645.24 300.031 637.335C278.1 625.621 251.829 611.59 237.5 609.5C218.3 606.7 141.167 576 105 561C104.527 561.24 104.05 561.482 103.569 561.726C107.535 554.995 111.271 547.924 114.729 540.5C153.135 458.049 233.616 449.745 275.948 445.377C292.916 443.626 303.755 442.507 303.297 437.5C301.699 420 242.572 404.5 181.846 420.5C121.121 436.5 94.4869 374.5 151.484 374.5C156.746 374.5 162.271 374.556 168.058 374.614H168.076C224.971 375.185 307.154 376.01 413.029 327C486.809 292.848 536.512 221.496 579.791 159.366C604.943 123.259 627.925 90.2665 652.203 69.5Z" fill="#49BEC6"/>
<path d="M3.68807 511C19.4118 475.4 92.6018 459.5 127.231 456C102.979 474.5 74.8191 511 65.4597 527.5C56.1004 544 -15.9666 555.5 3.68807 511Z" fill="#49BEC6"/>
<path d="M553.081 69.5C511.9 57.8333 422.706 43.8 395.377 81C377.08 105.906 395.188 100.833 431.184 90.7507C462.393 82.0086 507.05 69.5 553.081 69.5Z" fill="#49BEC6"/>
<path d="M218.017 277.5C207.566 272 182.171 266.6 164.201 289C150.754 305.762 166.655 298.334 185.2 289.671C197.634 283.863 211.255 277.5 218.017 277.5Z" fill="#49BEC6"/>
<path d="M688.099 653.5C667.983 644.3 650.703 649.667 644.578 653.5C663.186 653.5 672.134 662.064 678.777 668.422C682.158 671.659 684.943 674.323 688.099 674.997C697.459 676.993 713.245 665 688.099 653.5Z" fill="#49BEC6"/>
</mask>
<g mask="url(#mask0_93_14644)">
<path d="M652.203 69.5C705.044 24.3 748.085 4.33333 763 0V360C745.311 399.249 734.392 437.732 726.274 466.343L726.273 466.345C723.625 475.678 721.275 483.96 719.086 490.875C710.053 519.4 694.32 553.012 675.324 585.162C661.24 609 652.272 551.39 657.5 531C664.801 502.527 670.59 496.265 688.099 477.325L688.1 477.323L706 457.5C706 457.5 715.838 434.803 719.721 419.518C724.082 402.356 715.885 398.553 726 374.614C705.384 391.492 708.678 416.197 708.678 416.197C708.678 416.197 712.109 441.925 689 460C621.425 512.854 624.362 558.095 626.438 590.078C626.646 593.277 626.844 596.343 626.964 599.271C594.68 615.538 521.278 648.727 481.5 653.5C431.5 659.5 348 657 333.5 653.5C327.657 652.09 314.833 645.24 300.031 637.335C278.1 625.621 251.829 611.59 237.5 609.5C218.3 606.7 141.167 576 105 561C104.527 561.24 104.05 561.482 103.569 561.726C107.535 554.995 111.271 547.924 114.729 540.5C153.135 458.049 233.616 449.745 275.948 445.377C292.916 443.626 303.755 442.507 303.297 437.5C301.699 420 242.572 404.5 181.846 420.5C121.121 436.5 94.4869 374.5 151.484 374.5C156.746 374.5 162.271 374.556 168.058 374.614H168.076C224.971 375.185 307.154 376.01 413.029 327C486.809 292.848 536.512 221.496 579.791 159.366C604.943 123.259 627.925 90.2665 652.203 69.5Z" fill="#49BEC6"/>
<path d="M3.68807 511C19.4118 475.4 92.6018 459.5 127.231 456C102.979 474.5 74.8191 511 65.4597 527.5C56.1004 544 -15.9666 555.5 3.68807 511Z" fill="#49BEC6"/>
<path d="M553.081 69.5C511.9 57.8333 422.706 43.8 395.377 81C377.08 105.906 395.188 100.833 431.184 90.7507C462.393 82.0086 507.05 69.5 553.081 69.5Z" fill="#49BEC6"/>
<path d="M218.017 277.5C207.566 272 182.171 266.6 164.201 289C150.754 305.762 166.655 298.334 185.2 289.671C197.634 283.863 211.255 277.5 218.017 277.5Z" fill="#49BEC6"/>
<path d="M688.099 653.5C667.983 644.3 650.703 649.667 644.578 653.5C663.186 653.5 672.134 662.064 678.777 668.422C682.158 671.659 684.943 674.323 688.099 674.997C697.459 676.993 713.245 665 688.099 653.5Z" fill="#49BEC6"/>
<g opacity="0.2">
<path fill-rule="evenodd" clip-rule="evenodd" d="M606.056 170.455C600.163 181.002 556.991 204.674 535.5 215.5C403 255.833 134.3 336.5 119.5 336.5C101 336.5 85 357 83 378C81 399 114 424 138 434C152.604 440.085 139.992 466.721 124.161 493.179C127.517 489.887 130.163 486.815 132 484C156.8 446 180.667 457.833 189.5 468.5C202.333 473.333 235.5 480.1 265.5 468.5C248.5 480 206.8 505.8 176 517C214.667 516 301.9 504.9 341.5 468.5C333 489.833 307.3 535.5 272.5 547.5C297.761 541.22 346.265 526.118 365.209 510.103C339.993 539.144 286.454 590.996 228 617.5C253.333 615.167 311.5 604.2 341.5 579C338.667 587.833 329.6 607.9 316 617.5C302.4 627.1 310.333 625.5 316 623.5C348.5 617.667 420.4 597.1 448 561.5C442.667 572.167 428.5 596.5 414.5 608.5C452.167 600.5 532.9 573.4 554.5 529C550.167 546.833 537 586 519 600C541.667 598.833 589 591.6 597 572C593.134 583.348 585.256 603.188 578.182 612.459C586.875 608.58 600.754 603.336 610 600C612.833 603.167 615.6 612.3 604 623.5C592.4 634.7 618.167 624.167 632.5 617.5L661.5 600L713.212 618.988C723.136 602.71 728.179 585.164 725 567C713.8 503 729.667 400.333 739 357L692 410C696 367.2 719.667 314.5 731 293.5C692 322 640 399.5 630.5 434C622.9 461.6 591.333 476.833 576.5 481C609.3 449.8 622.167 399.333 624.5 378C582.9 459.2 480.5 511.833 434.5 528C504.1 487.6 539.833 425.5 549 399.5C513 440.3 453 470.833 427.5 481C479.5 456.6 537.5 367.833 560 326.5C542.489 351.908 449.06 395.59 385.528 422.315C491.603 370.484 575.199 236.687 606.056 170.455ZM372 502C370.735 504.702 368.389 507.415 365.209 510.103C367.774 507.149 370.046 504.431 372 502Z" fill="white"/>
<path d="M606.5 169.5C606.39 169.805 606.242 170.124 606.056 170.455C606.205 170.135 606.353 169.817 606.5 169.5Z" fill="white"/>
</g>
<g opacity="0.4">
<path d="M724.5 193.5C707 211.833 670.4 258.9 664 300.5C656.833 281.833 658.9 234.3 724.5 193.5Z" fill="white"/>
<path d="M703 120C680 141.333 631.7 190.2 622.5 215C612.167 206.5 613.8 175.6 703 120Z" fill="white"/>
<path d="M587 411.5C596.2 392.3 614.5 368.167 622.5 358.5C610.667 362.333 582.8 378.3 566 411.5C549.2 444.7 471.333 508.333 434.5 536C503.5 523 575.5 435.5 587 411.5Z" fill="white"/>
<path d="M519.5 522C491 544.833 423.6 591.7 382 596.5C414.22 596.167 486.829 580.8 519.5 522Z" fill="white"/>
<path d="M388 469.5C365.5 496.5 300.6 550.7 221 551.5C261.167 538.667 350.8 504.3 388 469.5Z" fill="white"/>
<path d="M263.5 475.5C254 485.667 232.2 507 221 511C207 516 169.5 532.5 162 551.5C160.333 544.667 169.8 523.7 221 494.5C252.126 476.748 269.923 462.655 279.355 452.985L288.5 440C288.043 442.352 285.438 446.749 279.355 452.985L263.5 475.5Z" fill="white"/>
<path d="M388 522C377.833 534.333 350.6 559.9 323 563.5C339.833 565.167 376.4 559.2 388 522Z" fill="white"/>
<path d="M601.5 551.5C605.5 532.7 625.167 493 634.5 475.5C621.5 481.833 593.8 502.8 587 536C580.2 569.2 547.833 590.167 532.5 596.5C553.833 589.333 597.5 570.3 601.5 551.5Z" fill="white"/>
<path d="M733 308.5C715.833 333.333 681.8 388.7 683 411.5C678.833 396.167 683 354.1 733 308.5Z" fill="white"/>
</g>
<g opacity="0.2">
<path fill-rule="evenodd" clip-rule="evenodd" d="M804.431 -82.3292C802.644 -75.3835 781.446 -55.2612 770.749 -45.7941C700.798 -2.58743 558.773 84.3859 550.278 86.626C539.659 89.4262 533.578 103.615 535.608 115.972C537.639 128.329 560.365 137.684 575.655 139.791C584.959 141.074 581.751 158.272 576.668 175.855C578.097 173.457 579.15 171.294 579.779 169.399C588.262 143.834 603.753 147.014 610.438 151.799C618.536 152.631 638.598 151.495 654.062 140.296C646.045 149.47 626.014 170.591 610.03 181.682C632.073 175.255 680.465 155.68 697.686 128.793C696.036 142.325 688.196 172.427 670.037 184.583C683.587 177.155 709.142 161.144 717.592 149.084C707.514 169.57 684.631 207.437 655.089 231.498C669.278 226.325 701.006 211.226 714.412 192.22C714.122 197.719 711.955 210.61 705.602 218.179C699.248 225.748 703.56 223.629 706.51 221.623C724.282 213.355 762.44 190.667 772.894 166.055C771.447 172.985 766.999 189.097 760.779 198.104C781.189 187.811 823.428 160.035 829.106 131.28C829.318 142.172 827.689 166.647 819.476 177.408C832.31 173.307 858.385 161.991 860.01 149.53C859.509 156.629 857.989 169.209 855.332 175.601C859.735 172.059 866.908 166.948 871.71 163.634C873.816 165.023 876.786 169.847 871.823 178.031C866.86 186.216 880.056 176.27 887.274 170.273L901.271 155.839L933.828 158.911C937.061 148.066 937.3 137.231 932.726 127.286C916.61 92.2445 910.178 30.9119 908.976 4.62574L890.02 42.1618C885.838 16.989 891.446 -16.8431 894.773 -30.6126C876.7 -8.35048 858.583 44.0055 858.351 65.2465C858.167 82.2394 842.353 95.7613 834.469 100.398C848.574 77.5246 848.321 46.6091 846.431 34.0105C834.843 86.9162 784.032 132.627 760.075 148.869C793.91 115.145 805.022 74.0908 806.348 57.7792C791.86 86.6475 762.041 113.255 748.943 122.951C775.098 101.074 794.954 41.3431 801.613 14.212C795.407 31.4469 748.391 70.6616 715.968 95.6184C769.01 49.8118 796.743 -39.6416 804.431 -82.3292ZM720.264 143.405C719.947 145.147 719.011 147.06 717.592 149.084C718.618 147 719.51 145.097 720.264 143.405Z" fill="white"/>
<path d="M804.541 -82.9448C804.524 -82.7531 804.487 -82.5477 804.431 -82.3292C804.468 -82.5355 804.504 -82.7407 804.541 -82.9448Z" fill="white"/>
</g>
<g opacity="0.2">
<path fill-rule="evenodd" clip-rule="evenodd" d="M145.014 576.965C139.019 580.902 109.798 581.526 95.5147 581.332C14.6947 566.231 -148.893 535.015 -156.685 530.956C-166.425 525.883 -180.471 532.288 -187.283 542.796C-194.094 553.304 -183.576 575.516 -173.683 587.362C-167.663 594.571 -181.607 605.136 -197.198 614.724C-194.528 613.911 -192.293 613.019 -190.553 612.041C-167.076 598.835 -157.755 611.61 -156.03 619.649C-150.599 625.713 -134.993 638.37 -116.017 640.49C-128.121 641.883 -157.151 644.031 -176.438 641.481C-155.806 651.558 -106.835 669.636 -76.0041 661.332C-86.3295 670.233 -112.383 687.228 -133.996 684.002C-118.975 687.623 -89.2962 692.973 -74.9304 689.737C-96.1703 698.111 -138.577 710.729 -176.621 708.653C-162.643 714.372 -129.012 724.549 -106.307 719.508C-110.221 723.382 -120.497 731.46 -130.29 732.785C-140.083 734.11 -135.467 735.443 -131.935 735.944C-113.225 741.785 -69.7306 750.675 -45.437 739.501C-51.17 743.654 -65.3016 752.58 -75.9631 755.059C-53.9383 761.176 -4.00172 769.048 19.5462 751.596C12.3743 759.796 -5.29846 776.806 -18.6144 779.241C-6.36082 784.842 20.5431 794.014 30.1299 785.889C24.9824 790.804 15.3938 799.089 9.12765 802.03C14.7677 802.372 23.5131 803.417 29.2957 804.196C29.919 806.64 28.871 812.207 19.6924 814.923C10.5138 817.638 26.9681 819.159 36.3426 819.58L56.4097 818.319L78.4282 842.497C88.1169 836.648 95.5836 828.793 98.8912 818.359C110.545 781.592 147.053 731.891 163.851 711.636L124.572 726.651C138.415 705.214 165.327 683.958 177.052 676.01C148.704 680.32 100.074 706.863 85.6111 722.421C74.0411 734.868 53.2442 734.231 44.292 732.357C70.1168 724.926 90.7305 701.884 97.8092 691.293C53.6398 722.635 -14.706 722.264 -43.3578 718.161C4.36455 715.978 40.2074 693.082 52.1636 681.907C22.0214 693.516 -17.9409 693.137 -34.1543 691.497C-0.085797 692.911 54.793 662.082 77.9738 646.491C61.7867 655.066 0.619074 652.442 -40.1588 649.09C29.9018 650.891 110.605 603.373 145.014 576.965ZM-69.1331 687.333C-70.5398 688.409 -72.5195 689.194 -74.9304 689.737C-72.77 688.885 -70.8286 688.077 -69.1331 687.333Z" fill="white"/>
<path d="M145.51 576.584C145.368 576.715 145.203 576.842 145.014 576.965C145.18 576.838 145.346 576.711 145.51 576.584Z" fill="white"/>
</g>
</g>
<path d="M595.27 608.5C640.87 618.9 667.603 596.167 675.27 583.5C668.103 576.167 660.17 557.6 685.77 542C711.37 526.4 721.77 426.833 723.77 379L713.77 384C697.77 410.4 681.437 420 675.27 421.5C679.27 412.833 681.57 400.7 658.77 421.5C630.27 447.5 538.27 595.5 595.27 608.5Z" fill="#6DCBD1"/>
<path d="M66.2374 492.977C70.7476 516.697 127.651 530.606 155.539 534.595C153.031 529.199 143.075 518.615 123.316 519.443C98.6182 520.478 60.5997 463.327 66.2374 492.977Z" fill="#7CF8F8"/>
<path d="M204.224 544.694C199.115 555.334 210.25 565.188 216.456 568.784C224.971 575.819 235.325 569.62 225.762 567.636C216.199 565.652 210.61 531.394 204.224 544.694Z" fill="#7CF8F8"/>
<path d="M251.472 539.87C248.816 549.172 253.642 554.176 256.387 555.515C260.179 559.093 266.563 554.547 262.675 551.431C258.788 548.315 254.79 528.242 251.472 539.87Z" fill="#7CF8F8"/>
<path d="M167.897 505.803C160.169 500.864 146.831 490.349 155.31 487.797C165.908 484.607 185.995 497.242 167.897 505.803Z" fill="#7CF8F8"/>
<path d="M438.152 628.064C442.697 637.628 459.719 639.209 467.662 638.804C473.593 638.187 477.427 635.442 478.603 634.146C468.121 636.59 432.47 616.109 438.152 628.064Z" fill="white"/>
<path d="M407.98 624.884C407.941 628.571 414.612 629.339 417.953 629.262C424.144 630.02 424.602 632.181 421.021 627.589C417.439 622.997 408.029 620.276 407.98 624.884Z" fill="white"/>
<path d="M489.636 607.184C545.242 632.883 605.361 617.592 628.47 606.734C638.984 601.218 658.204 591.041 650.964 594.466C641.915 598.747 619.415 597.928 586.788 593.469C554.161 589.01 420.128 575.062 489.636 607.184Z" fill="url(#paint0_linear_93_14644)"/>
<g filter="url(#filter0_f_93_14644)">
<path d="M563.885 603.343C567.078 608.932 579.125 608.557 584.75 607.672C595.232 605.227 586.587 598.816 576.718 598.308C566.848 597.8 559.893 596.357 563.885 603.343Z" fill="white"/>
</g>
<g filter="url(#filter1_f_93_14644)">
<path d="M520.244 593.497C527.043 597.737 547.617 600.354 557.054 601.133C574.452 602.089 558.109 596.045 541.062 593.394C524.015 590.742 511.745 588.196 520.244 593.497Z" fill="white"/>
</g>
<mask id="mask1_93_14644" style="mask-type:alpha" maskUnits="userSpaceOnUse" x="53" y="535" width="636" height="149">
<path d="M665.837 615.44C675.711 601.781 685.124 575.498 688.597 564.064C667.625 564.389 642.63 610.626 620.479 606.031C598.327 601.436 560.671 629.152 524.749 643.205C488.827 657.257 378.131 628.684 356.165 623.192C334.2 617.701 305.837 584.704 276.863 591.783C247.889 598.862 192.477 574.277 139.174 550.131C85.8707 525.984 76.9385 537.221 59.5676 546.706C42.1966 556.192 62.3062 586.543 99.6006 608.303C136.895 630.064 184.667 611.925 236.354 622.647C288.041 633.369 355.06 676.255 379.321 681.288C403.582 686.321 447.882 679.616 470.527 671.225C493.172 662.833 505.086 669.044 528.539 667.365C551.992 665.685 575.506 658.409 596.972 645.097C618.437 631.786 653.493 632.513 665.837 615.44Z" fill="url(#paint1_linear_93_14644)"/>
</mask>
<g mask="url(#mask1_93_14644)">
<path d="M665.837 615.44C675.711 601.781 685.124 575.498 688.597 564.064C667.625 564.389 642.63 610.626 620.479 606.031C598.327 601.436 560.671 629.152 524.749 643.205C488.827 657.257 378.131 628.684 356.165 623.192C334.2 617.701 305.837 584.704 276.863 591.783C247.889 598.862 192.477 574.277 139.174 550.131C85.8707 525.984 76.9385 537.221 59.5676 546.706C42.1966 556.192 62.3062 586.543 99.6006 608.303C136.895 630.064 184.667 611.925 236.354 622.647C288.041 633.369 355.06 676.255 379.321 681.288C403.582 686.321 447.882 679.616 470.527 671.225C493.172 662.833 505.086 669.044 528.539 667.365C551.992 665.685 575.506 658.409 596.972 645.097C618.437 631.786 653.493 632.513 665.837 615.44Z" fill="url(#paint2_linear_93_14644)"/>
<g filter="url(#filter2_f_93_14644)">
<path d="M398.439 675.248C377.495 678.293 372.905 673.03 373.227 670.018C373.584 668.296 376.078 664.143 383.195 661.309C392.091 657.766 424.619 671.442 398.439 675.248Z" fill="white"/>
<path d="M429.94 676.394C438.223 675.803 455.527 673.697 458.471 669.997C461.415 666.297 440.677 672.72 429.94 676.394Z" fill="white"/>
<path d="M156.476 582.718C153.01 608.171 162.879 608.679 167.226 609.58C165.695 616.96 166.461 613.27 154.546 613.878C142.632 614.485 136.179 593.133 131.521 580.621C126.862 568.108 158.347 568.979 156.476 582.718Z" fill="white"/>
<path d="M101.289 555.875C103.419 563.091 97.2375 568.121 93.8802 569.733C85.5965 570.324 87.7945 568.471 84.7215 557.057C81.6484 545.643 78.9419 554.319 75.2074 550.465C71.4728 546.611 87.4223 535.295 87.7833 542.297C88.1442 549.3 98.626 546.856 101.289 555.875Z" fill="white"/>
<path d="M197.545 598.935C200.126 607.476 217.955 614.202 226.547 616.498C227.706 616.738 229.574 615.894 227.771 610.594C225.519 603.968 218.41 603.264 206.288 596.13C194.166 588.997 194.319 588.259 197.545 598.935Z" fill="white"/>
</g>
<g opacity="0.8" filter="url(#filter3_f_93_14644)">
<path d="M136.644 604.006C90.4956 595.664 76.2572 574.544 74.9065 565.027C77.9683 550.267 86.4108 562.025 107.172 562.483C127.933 562.942 156.175 597.281 184.504 596.23C212.833 595.178 285.353 617.15 288.322 624.694C291.291 632.237 266.079 627.007 243.983 615.496C221.888 603.985 194.33 614.433 136.644 604.006Z" fill="white"/>
</g>
<path opacity="0.4" d="M281.719 598.902C235.441 600.722 147.802 564.124 109.768 545.598C130.279 548.453 177.73 557.513 203.441 570.908C235.58 587.652 269.383 582.068 306.819 592.353C336.768 600.581 343.444 619.264 343.038 627.577C327.935 617.726 294.527 598.2 281.719 598.902Z" fill="#DDF4FF"/>
</g>
<defs>
<filter id="filter0_f_93_14644" x="556.676" y="591.77" width="38.9103" height="22.479" filterUnits="userSpaceOnUse" color-interpolation-filters="sRGB">
<feFlood flood-opacity="0" result="BackgroundImageFix"/>
<feBlend mode="normal" in="SourceGraphic" in2="BackgroundImageFix" result="shape"/>
<feGaussianBlur stdDeviation="3.03132" result="effect1_foregroundBlur_93_14644"/>
</filter>
<filter id="filter1_f_93_14644" x="511.417" y="584.333" width="59.1404" height="22.9637" filterUnits="userSpaceOnUse" color-interpolation-filters="sRGB">
<feFlood flood-opacity="0" result="BackgroundImageFix"/>
<feBlend mode="normal" in="SourceGraphic" in2="BackgroundImageFix" result="shape"/>
<feGaussianBlur stdDeviation="3.03132" result="effect1_foregroundBlur_93_14644"/>
</filter>
<filter id="filter2_f_93_14644" x="73.1255" y="538.543" width="387.144" height="139.367" filterUnits="userSpaceOnUse" color-interpolation-filters="sRGB">
<feFlood flood-opacity="0" result="BackgroundImageFix"/>
<feBlend mode="normal" in="SourceGraphic" in2="BackgroundImageFix" result="shape"/>
<feGaussianBlur stdDeviation="0.75783" result="effect1_foregroundBlur_93_14644"/>
</filter>
<filter id="filter3_f_93_14644" x="70.3595" y="553.066" width="222.749" height="79.705" filterUnits="userSpaceOnUse" color-interpolation-filters="sRGB">
<feFlood flood-opacity="0" result="BackgroundImageFix"/>
<feBlend mode="normal" in="SourceGraphic" in2="BackgroundImageFix" result="shape"/>
<feGaussianBlur stdDeviation="2.27349" result="effect1_foregroundBlur_93_14644"/>
</filter>
<linearGradient id="paint0_linear_93_14644" x1="535.714" y1="616.743" x2="541.342" y2="602.348" gradientUnits="userSpaceOnUse">
<stop stop-color="white"/>
<stop offset="1" stop-color="#61F3F3"/>
</linearGradient>
<linearGradient id="paint1_linear_93_14644" x1="163.878" y1="595.458" x2="681.005" y2="515.171" gradientUnits="userSpaceOnUse">
<stop stop-color="#00E8E8"/>
<stop offset="1" stop-color="#A7FFFF"/>
</linearGradient>
<linearGradient id="paint2_linear_93_14644" x1="163.878" y1="595.458" x2="681.005" y2="515.171" gradientUnits="userSpaceOnUse">
<stop stop-color="#5BD8D8"/>
<stop offset="1" stop-color="#9DFEFE"/>
</linearGradient>
</defs>
</svg>
