<svg width="19" height="15" viewBox="0 0 19 15" fill="none" xmlns="http://www.w3.org/2000/svg">
<path d="M13.7222 6.28278H11.6111V4.71209H13.7222V6.28278ZM0 1.5707C0 1.15412 0.22242 0.754609 0.61833 0.460046C1.01424 0.165483 1.55121 0 2.11111 0H16.8889C17.4488 0 17.9858 0.165483 18.3817 0.460046C18.7776 0.754609 19 1.15412 19 1.5707V12.5656C19 12.9821 18.7776 13.3817 18.3817 13.6762C17.9858 13.9708 17.4488 14.1363 16.8889 14.1363H2.11111C1.55121 14.1363 1.01424 13.9708 0.61833 13.6762C0.22242 13.3817 0 12.9821 0 12.5656V1.5707ZM7.38889 3.14139H5.27778V10.9949H7.38889V3.14139ZM9.5 10.9949H11.6111V7.85348H13.7222C14.2821 7.85348 14.8191 7.68799 15.215 7.39343C15.6109 7.09887 15.8333 6.69936 15.8333 6.28278V4.71209C15.8333 4.29551 15.6109 3.896 15.215 3.60144C14.8191 3.30687 14.2821 3.14139 13.7222 3.14139H9.5V10.9949Z" fill="url(#paint0_linear_144_15894)"/>
<defs>
<linearGradient id="paint0_linear_144_15894" x1="9.5" y1="0" x2="9.5" y2="14.1363" gradientUnits="userSpaceOnUse">
<stop stop-color="#35A8B0"/>
<stop offset="1" stop-color="#4FC5CD"/>
</linearGradient>
</defs>
</svg>
