<svg width="30" height="30" viewBox="0 0 30 30" fill="none" xmlns="http://www.w3.org/2000/svg">
<path d="M21.8625 12L7 20.9625C6.125 21.4875 5 20.8625 5 19.8375V9.83755C5 5.47505 9.7125 2.75005 13.5 4.92505L19.2375 8.22505L21.85 9.72505C22.7125 10.2375 22.725 11.4875 21.8625 12Z" fill="white"/>
<path d="M22.6125 19.325L17.55 22.25L12.5 25.1625C10.6875 26.2 8.63751 25.9875 7.15001 24.9375C6.42501 24.4375 6.51251 23.325 7.27501 22.875L23.1625 13.35C23.9125 12.9 24.9 13.325 25.0375 14.1875C25.35 16.125 24.55 18.2125 22.6125 19.325Z" fill="white"/>
</svg>
