<svg width="30" height="30" viewBox="0 0 30 30" fill="none" xmlns="http://www.w3.org/2000/svg">
<path d="M15 26.25C13.4375 26.25 11.9742 25.9533 10.61 25.36C9.24583 24.7667 8.05833 23.9646 7.0475 22.9538C6.03667 21.9429 5.23458 20.7554 4.64125 19.3912C4.04792 18.0271 3.75083 16.5633 3.75 15C3.75 13.4375 4.04708 11.9742 4.64125 10.61C5.23542 9.24583 6.03708 8.05833 7.04625 7.0475C8.05708 6.03667 9.24458 5.23458 10.6088 4.64125C11.9729 4.04792 13.4367 3.75083 15 3.75C16.7083 3.75 18.3283 4.11458 19.86 4.84375C21.3917 5.57292 22.6883 6.60417 23.75 7.9375V5H26.25V12.5H18.75V10H22.1875C21.3333 8.83333 20.2813 7.91667 19.0313 7.25C17.7813 6.58333 16.4375 6.25 15 6.25C12.5625 6.25 10.495 7.09917 8.7975 8.7975C7.1 10.4958 6.25083 12.5633 6.25 15C6.25 17.4375 7.09917 19.5054 8.7975 21.2037C10.4958 22.9021 12.5633 23.7508 15 23.75C17.1875 23.75 19.0992 23.0417 20.735 21.625C22.3708 20.2083 23.3342 18.4167 23.625 16.25H26.1875C25.875 19.1042 24.6513 21.4846 22.5163 23.3912C20.3813 25.2979 17.8758 26.2508 15 26.25ZM18.5 20.25L13.75 15.5V8.75H16.25V14.5L20.25 18.5L18.5 20.25Z" fill="url(#paint0_linear_144_16750)"/>
<defs>
<linearGradient id="paint0_linear_144_16750" x1="15" y1="3.75" x2="15" y2="26.25" gradientUnits="userSpaceOnUse">
<stop stop-color="#35A8B0"/>
<stop offset="1" stop-color="#4FC5CD"/>
</linearGradient>
</defs>
</svg>
