<svg width="26" height="26" viewBox="0 0 26 26" fill="none" xmlns="http://www.w3.org/2000/svg">
<g clip-path="url(#clip0_144_16525)">
<path fill-rule="evenodd" clip-rule="evenodd" d="M13.0001 2.16675C7.01683 2.16675 2.16675 7.01683 2.16675 13.0001C2.16675 18.9833 7.01683 23.8334 13.0001 23.8334C18.9833 23.8334 23.8334 18.9833 23.8334 13.0001C23.8334 7.01683 18.9833 2.16675 13.0001 2.16675ZM9.20841 10.2917C9.20841 9.79382 9.30649 9.30077 9.49704 8.84074C9.68759 8.38071 9.96688 7.96272 10.319 7.61063C10.6711 7.25855 11.089 6.97925 11.5491 6.7887C12.0091 6.59816 12.5022 6.50008 13.0001 6.50008C13.498 6.50008 13.9911 6.59816 14.4511 6.7887C14.9111 6.97925 15.3291 7.25855 15.6812 7.61063C16.0333 7.96272 16.3126 8.38071 16.5031 8.84074C16.6937 9.30077 16.7917 9.79382 16.7917 10.2917C16.7917 11.2974 16.3923 12.2618 15.6812 12.9729C14.9701 13.6839 14.0057 14.0834 13.0001 14.0834C11.9945 14.0834 11.03 13.6839 10.319 12.9729C9.60789 12.2618 9.20841 11.2974 9.20841 10.2917ZM19.7796 18.3994C18.9686 19.4195 17.9377 20.2432 16.7638 20.809C15.5898 21.3747 14.3032 21.668 13.0001 21.6667C11.6969 21.668 10.4103 21.3747 9.2364 20.809C8.06246 20.2432 7.03152 19.4195 6.22058 18.3994C7.97666 17.1395 10.373 16.2501 13.0001 16.2501C15.6272 16.2501 18.0235 17.1395 19.7796 18.3994Z" fill="url(#paint0_linear_144_16525)"/>
</g>
<defs>
<linearGradient id="paint0_linear_144_16525" x1="13.0001" y1="2.16675" x2="13.0001" y2="23.8334" gradientUnits="userSpaceOnUse">
<stop stop-color="#35A8B0"/>
<stop offset="1" stop-color="#4FC5CD"/>
</linearGradient>
<clipPath id="clip0_144_16525">
<rect width="26" height="26" fill="white"/>
</clipPath>
</defs>
</svg>
